<?xml version="1.0" encoding="utf-8"?>
<!-- Generator: Adobe Illustrator 22.1.0, SVG Export Plug-In . SVG Version: 6.00 Build 0)  -->
<svg version="1.1" id="Layer_1" xmlns="http://www.w3.org/2000/svg" xmlns:xlink="http://www.w3.org/1999/xlink" x="0px" y="0px"
	 viewBox="0 0 477.9 477.9" style="enable-background:new 0 0 477.9 477.9;" xml:space="preserve">
<title>icon-phone</title>
<g id="Layer_2_1_">
	<g id="Capa_1">
		<path d="M458.5,397.5L434.1,438c-5.4,9.2-14.1,16-24.3,18.9c-49.1,13.5-135,2.3-264.9-127.6S3.9,113.6,17.4,64.5
			c2.9-10.3,9.7-19,18.9-24.4l40.6-24.3c5.6-3.4,12.9-1.7,16.5,3.7l35.1,52.7l29.5,44.2c3.5,5.4,2.3,12.5-2.7,16.5l-36.3,28.2
			c-11.1,8.4-14.2,23.7-7.4,35.9l2.9,5.2c10.2,18.7,22.9,42,69.3,88.3s69.6,59,88.3,69.2l5.3,2.9c12.1,6.8,27.4,3.6,35.9-7.4
			l28.2-36.3c3.9-5,11.1-6.2,16.5-2.7l97,64.7C460.3,384.6,461.9,391.9,458.5,397.5z"/>
	</g>
</g>
</svg>
