<svg xmlns="http://www.w3.org/2000/svg" width="453.543" height="453.543"><path fill="#D8D7D5" d="M0 0h453.54v453.54H0z"/><g fill="#5BB584"><path d="M82.1-14.17L106.14 9.9h-48.1zM130.2-14.14l24.06-24.06V9.92zM130.2-14.14L106.15 9.92V-38.2zM130.4 34.1l24.06 24.04h-48.1zM130.4 34.1l-24.05-24.07h48.1zM82.3 34.06L58.23 58.12v-48.1zM82.3 34.06L106.34 10v48.12zM-14.9-14.17L9.18 9.9h-48.1zM33.22-14.14L57.28-38.2V9.92zM33.22-14.14L9.17 9.92V-38.2zM33.42 34.1l24.06 24.04H9.38zM33.42 34.1L9.37 10.02h48.1zM-14.7 34.06L9.38 10v48.12zM275.03-14.17L299.1 9.9h-48.13zM323.14-14.14L347.2-38.2V9.92zM323.14-14.14L299.08 9.92V-38.2zM323.34 34.1l24.06 24.04h-48.12zM323.34 34.1l-24.06-24.07h48.12zM275.23 34.06l-24.06 24.06v-48.1zM275.23 34.06L299.28 10v48.12zM178.05-14.17L202.1 9.9H154zM226.16-14.14l24.06-24.06V9.92zM226.16-14.14L202.1 9.92V-38.2zM226.36 34.1l24.05 24.04h-48.1zM226.36 34.1L202.3 10.02h48.1zM178.25 34.06L154.2 58.12v-48.1zM178.25 34.06L202.3 10v48.12zM468.43-14.17L492.5 9.9h-48.13zM468.63 34.06l-24.06 24.06v-48.1zM371.45-14.17L395.5 9.9h-48.1zM419.56-14.14L443.6-38.2V9.92zM419.56-14.14L395.5 9.92V-38.2zM419.76 34.1l24.05 24.04h-48.1zM419.76 34.1L395.7 10.02h48.1zM371.65 34.06L347.6 58.12v-48.1zM371.65 34.06L395.7 10v48.12zM82.1 82.2L58.03 58.14h48.1zM82.1 82.2l24.05 24.05h-48.1zM130.2 82.22l24.06-24.05v48.1zM130.2 82.22l-24.05 24.06v-48.1zM130.4 130.45l24.06 24.06h-48.1zM130.4 130.45l-24.05-24.05h48.1zM82.3 130.43l-24.06 24.05v-48.1zM82.3 130.43l24.05-24.06v48.1zM-14.9 82.2l-24.04-24.06h48.1zM-14.9 82.2l24.07 24.05h-48.1zM33.22 82.22l24.06-24.05v48.1zM33.22 82.22L9.17 106.28v-48.1zM33.42 130.45l24.06 24.06H9.38zM33.42 130.45L9.37 106.4h48.1zM-14.7 130.43l24.07-24.06v48.1zM275.03 82.2l-24.05-24.06h48.1zM275.03 82.2l24.06 24.05h-48.13zM323.14 82.22l24.06-24.05v48.1zM323.14 82.22l-24.06 24.06v-48.1zM323.34 130.45l24.06 24.06h-48.12zM323.34 130.45l-24.06-24.05h48.12zM275.23 130.43l-24.06 24.05v-48.1zM275.23 130.43l24.05-24.06v48.1zM178.05 82.2L154 58.14h48.1zM178.05 82.2l24.06 24.05H154zM226.16 82.22l24.06-24.05v48.1zM226.16 82.22l-24.06 24.06v-48.1zM226.36 130.45l24.05 24.06h-48.1zM226.36 130.45L202.3 106.4h48.1zM178.25 130.43l-24.06 24.05v-48.1zM178.25 130.43l24.05-24.06v48.1zM468.43 82.2l-24.06-24.06h48.12zM468.43 82.2l24.06 24.05h-48.13zM468.63 130.43l-24.06 24.05v-48.1zM371.45 82.2L347.4 58.14h48.1zM371.45 82.2l24.06 24.05h-48.1zM419.56 82.22l24.05-24.05v48.1zM419.56 82.22l-24.06 24.06v-48.1zM419.76 130.45l24.05 24.06h-48.1zM419.76 130.45L395.7 106.4h48.1zM371.65 130.43l-24.06 24.05v-48.1zM371.65 130.43l24.05-24.06v48.1zM82.1 178.56L58.03 154.5h48.1zM82.1 178.56l24.05 24.06h-48.1zM130.2 178.6l24.06-24.07v48.12zM130.2 178.6l-24.05 24.05v-48.12zM130.4 226.82l24.06 24.06h-48.1zM130.4 226.82l-24.05-24.06h48.1zM82.3 226.8l-24.06 24.05v-48.1zM82.3 226.8l24.05-24.07v48.12zM-14.9 178.56l-24.04-24.05h48.1zM-14.9 178.56l24.07 24.06h-48.1zM33.22 178.6l24.06-24.07v48.12zM33.22 178.6L9.17 202.64v-48.12zM33.42 226.82l24.06 24.06H9.38zM33.42 226.82L9.37 202.76h48.1zM-14.7 226.8l24.07-24.07v48.12zM275.03 178.56l-24.05-24.05h48.1zM275.03 178.56l24.06 24.06h-48.13zM323.14 178.6l24.06-24.07v48.12zM323.14 178.6l-24.06 24.05v-48.12zM323.34 226.82l24.06 24.06h-48.12zM323.34 226.82l-24.06-24.06h48.12zM275.23 226.8l-24.06 24.05v-48.1zM275.23 226.8l24.05-24.07v48.12zM178.05 178.56L154 154.5h48.1zM178.05 178.56l24.06 24.06H154zM226.16 178.6l24.06-24.07v48.12zM226.16 178.6l-24.06 24.05v-48.12zM226.36 226.82l24.05 24.06h-48.1zM226.36 226.82l-24.06-24.06h48.1zM178.25 226.8l-24.06 24.05v-48.1zM178.25 226.8l24.05-24.07v48.12zM468.43 178.56l-24.06-24.05h48.12zM468.43 178.56l24.06 24.06h-48.13zM468.63 226.8l-24.06 24.05v-48.1zM371.45 178.56L347.4 154.5h48.1zM371.45 178.56l24.06 24.06h-48.1zM419.56 178.6l24.05-24.07v48.12zM419.56 178.6l-24.06 24.05v-48.12zM419.76 226.82l24.05 24.06h-48.1zM419.76 226.82l-24.06-24.06h48.1zM371.65 226.8l-24.06 24.05v-48.1zM371.65 226.8l24.05-24.07v48.12zM82.1 274.93l-24.06-24.06h48.1zM82.1 274.93l24.05 24.05h-48.1zM130.2 274.95l24.06-24.05V299zM130.2 274.95L106.15 299v-48.1zM130.4 323.18l24.06 24.06h-48.1zM130.4 323.18l-24.05-24.05h48.1zM82.3 323.16L58.23 347.2v-48.1zM82.3 323.16l24.05-24.06v48.1zM-14.9 274.93l-24.04-24.06h48.1zM-14.9 274.93l24.07 24.05h-48.1zM33.22 274.95l24.06-24.05V299zM33.22 274.95L9.17 299v-48.1zM33.42 323.18l24.06 24.06H9.38zM33.42 323.18L9.37 299.13h48.1zM-14.7 323.16L9.38 299.1v48.1zM275.03 274.93l-24.05-24.06h48.1zM275.03 274.93l24.06 24.05h-48.13zM323.14 274.95l24.06-24.05V299zM323.14 274.95L299.08 299v-48.1zM323.34 323.18l24.06 24.06h-48.12zM323.34 323.18l-24.06-24.05h48.12zM275.23 323.16l-24.06 24.05v-48.1zM275.23 323.16l24.05-24.06v48.1zM178.05 274.93L154 250.87h48.1zM178.05 274.93l24.06 24.05H154zM226.16 274.95l24.06-24.05V299zM226.16 274.95L202.1 299v-48.1zM226.36 323.18l24.05 24.06h-48.1zM226.36 323.18l-24.06-24.05h48.1zM178.25 323.16L154.2 347.2v-48.1zM178.25 323.16l24.05-24.06v48.1zM468.43 274.93l-24.06-24.06h48.12zM468.43 274.93l24.06 24.05h-48.13zM468.63 323.16l-24.06 24.05v-48.1zM371.45 274.93l-24.06-24.06h48.1zM371.45 274.93l24.06 24.05h-48.1zM419.56 274.95l24.05-24.05V299zM419.56 274.95L395.5 299v-48.1zM419.76 323.18l24.05 24.06h-48.1zM419.76 323.18l-24.06-24.05h48.1zM371.65 323.16L347.6 347.2v-48.1zM371.65 323.16l24.05-24.06v48.1zM82.1 371.3l-24.06-24.07h48.1zM82.1 371.3l24.05 24.05h-48.1zM130.2 371.32l24.06-24.06v48.1zM130.2 371.32l-24.05 24.05v-48.1zM130.4 419.55l24.06 24.05h-48.1zM130.4 419.55l-24.05-24.06h48.1zM82.3 419.52l-24.06 24.06v-48.12zM82.3 419.52l24.05-24.06v48.12zM-14.9 371.3l-24.04-24.07h48.1zM-14.9 371.3l24.07 24.05h-48.1zM33.22 371.32l24.06-24.06v48.1zM33.22 371.32L9.17 395.37v-48.1zM33.42 419.55l24.06 24.05H9.38zM33.42 419.55L9.37 395.5h48.1zM-14.7 419.52l24.07-24.06v48.12zM275.03 371.3l-24.05-24.07h48.1zM275.03 371.3l24.06 24.05h-48.13zM323.14 371.32l24.06-24.06v48.1zM323.14 371.32l-24.06 24.05v-48.1zM323.34 419.55l24.06 24.05h-48.12zM323.34 419.55l-24.06-24.06h48.12zM275.23 419.52l-24.06 24.06v-48.12zM275.23 419.52l24.05-24.06v48.12zM178.05 371.3L154 347.22h48.1zM178.05 371.3l24.06 24.05H154zM226.16 371.32l24.06-24.06v48.1zM226.16 371.32l-24.06 24.05v-48.1zM226.36 419.55l24.05 24.05h-48.1zM226.36 419.55L202.3 395.5h48.1zM178.25 419.52l-24.06 24.06v-48.12zM178.25 419.52l24.05-24.06v48.12zM468.43 371.3l-24.06-24.07h48.12zM468.43 371.3l24.06 24.05h-48.13zM468.63 419.52l-24.06 24.06v-48.12zM371.45 371.3l-24.06-24.07h48.1zM371.45 371.3l24.06 24.05h-48.1zM419.56 371.32l24.05-24.06v48.1zM419.56 371.32l-24.06 24.05v-48.1zM419.76 419.55l24.05 24.05h-48.1zM419.76 419.55L395.7 395.5h48.1zM371.65 419.52l-24.06 24.06v-48.12zM371.65 419.52l24.05-24.06v48.12zM82.1 467.66L58.03 443.6h48.1zM130.2 467.68l24.06-24.05v48.1zM130.2 467.68l-24.05 24.06v-48.1zM-14.9 467.66l-24.04-24.06h48.1zM33.22 467.68l24.06-24.05v48.1zM33.22 467.68L9.17 491.74v-48.1zM275.03 467.66l-24.05-24.06h48.1zM323.14 467.68l24.06-24.05v48.1zM323.14 467.68l-24.06 24.06v-48.1zM178.05 467.66L154 443.6h48.1zM226.16 467.68l24.06-24.05v48.1zM226.16 467.68l-24.06 24.06v-48.1zM468.43 467.66l-24.06-24.06h48.12zM371.45 467.66L347.4 443.6h48.1zM419.56 467.68l24.05-24.05v48.1zM419.56 467.68l-24.06 24.06v-48.1z"/></g></svg>