<svg xmlns="http://www.w3.org/2000/svg" width="453.543" height="453.543"><path fill="#DC231C" d="M0 0h453.54v453.54H0z"/><g fill="#FCB0A3"><path d="M-3.98 28.22c10.4 0 18.83-8.44 18.83-18.84S6.42-9.45-3.98-9.45-22.82-1.02-22.82 9.38c0 10.4 8.44 18.84 18.84 18.84M-3.98 65.88c10.4 0 18.83-8.43 18.83-18.83 0-10.4-8.43-18.83-18.83-18.83S-22.8 36.64-22.8 47.05C-22.83 57.45-14.4 65.88-4 65.88M-3.98 103.54c10.4 0 18.83-8.43 18.83-18.83 0-10.4-8.43-18.82-18.83-18.82S-22.8 74.3-22.8 84.7c-.02 10.4 8.42 18.84 18.82 18.84M28.97 9.38C39.37 9.38 47.8.95 47.8-9.45c0-10.4-8.43-18.83-18.83-18.83-10.4 0-18.83 8.43-18.83 18.83 0 10.4 8.43 18.83 18.83 18.83M28.97 47.05c10.4 0 18.84-8.44 18.84-18.83 0-10.4-8.43-18.84-18.83-18.84-10.4 0-18.83 8.43-18.83 18.84 0 10.4 8.43 18.83 18.83 18.83M28.97 84.7c10.4 0 18.84-8.42 18.84-18.82s-8.43-18.83-18.83-18.83c-10.4 0-18.83 8.43-18.83 18.83 0 10.4 8.43 18.83 18.83 18.83M61.93 28.22c10.4 0 18.83-8.44 18.83-18.84S72.33-9.45 61.93-9.45c-10.4 0-18.83 8.43-18.83 18.83 0 10.4 8.43 18.84 18.83 18.84M61.93 65.88c10.4 0 18.83-8.43 18.83-18.83 0-10.4-8.43-18.83-18.83-18.83-10.4 0-18.83 8.43-18.83 18.83 0 10.4 8.43 18.83 18.83 18.83M61.93 103.54c10.4 0 18.83-8.43 18.83-18.83 0-10.4-8.43-18.82-18.83-18.82-10.4 0-18.83 8.43-18.83 18.83 0 10.4 8.43 18.84 18.83 18.84M94.89 9.38c10.38 0 18.82-8.43 18.82-18.83 0-10.4-8.43-18.83-18.83-18.83S76.03-19.85 76.03-9.45c0 10.4 8.43 18.83 18.84 18.83M94.89 47.05c10.38 0 18.82-8.44 18.82-18.83 0-10.4-8.43-18.84-18.83-18.84S76.03 17.8 76.03 28.22c0 10.4 8.43 18.83 18.84 18.83M94.89 84.7c10.38 0 18.82-8.42 18.82-18.82S105.3 47.05 94.9 47.05s-18.85 8.43-18.85 18.83c0 10.4 8.43 18.83 18.84 18.83M127.84 28.22c10.4 0 18.83-8.44 18.83-18.84s-8.43-18.83-18.83-18.83S109-1.02 109 9.38c0 10.4 8.44 18.84 18.84 18.84M127.84 65.88c10.4 0 18.83-8.43 18.83-18.83 0-10.4-8.43-18.83-18.83-18.83S109 36.64 109 47.05c0 10.4 8.44 18.83 18.84 18.83M127.84 103.54c10.4 0 18.83-8.43 18.83-18.83 0-10.4-8.43-18.82-18.83-18.82S109 74.3 109 84.7c0 10.4 8.44 18.84 18.84 18.84M160.8 9.38c10.4 0 18.83-8.43 18.83-18.83 0-10.4-8.44-18.83-18.83-18.83-10.4 0-18.84 8.43-18.84 18.83 0 10.4 8.44 18.83 18.84 18.83M160.8 47.05c10.4 0 18.83-8.44 18.83-18.83 0-10.4-8.44-18.84-18.83-18.84-10.4 0-18.84 8.43-18.84 18.84 0 10.4 8.44 18.83 18.84 18.83M160.8 84.7c10.4 0 18.83-8.42 18.83-18.82s-8.44-18.83-18.83-18.83c-10.4 0-18.84 8.43-18.84 18.83 0 10.4 8.44 18.83 18.84 18.83M193.75 28.22c10.4 0 18.83-8.44 18.83-18.84s-8.43-18.83-18.83-18.83c-10.4 0-18.83 8.43-18.83 18.83 0 10.4 8.43 18.84 18.83 18.84M193.75 65.88c10.4 0 18.83-8.43 18.83-18.83 0-10.4-8.43-18.83-18.83-18.83-10.4 0-18.83 8.43-18.83 18.83 0 10.4 8.43 18.83 18.83 18.83M193.75 103.54c10.4 0 18.83-8.43 18.83-18.83 0-10.4-8.43-18.82-18.83-18.82-10.4 0-18.83 8.43-18.83 18.83 0 10.4 8.43 18.84 18.83 18.84M226.7 9.38c10.4 0 18.84-8.43 18.84-18.83 0-10.4-8.44-18.83-18.83-18.83-10.4 0-18.83 8.43-18.83 18.83 0 10.4 8.44 18.83 18.84 18.83M226.7 47.05c10.4 0 18.84-8.44 18.84-18.83 0-10.4-8.44-18.84-18.83-18.84-10.4 0-18.83 8.43-18.83 18.84 0 10.4 8.44 18.83 18.84 18.83M226.7 84.7c10.4 0 18.84-8.42 18.84-18.82s-8.44-18.83-18.83-18.83c-10.4 0-18.83 8.43-18.83 18.83 0 10.4 8.44 18.83 18.84 18.83M259.66 28.22c10.4 0 18.83-8.44 18.83-18.84s-8.44-18.83-18.84-18.83-18.83 8.43-18.83 18.83c0 10.4 8.43 18.84 18.83 18.84M259.66 65.88c10.4 0 18.83-8.43 18.83-18.83 0-10.4-8.44-18.83-18.84-18.83s-18.83 8.43-18.83 18.83c0 10.4 8.43 18.83 18.83 18.83M259.66 103.54c10.4 0 18.83-8.43 18.83-18.83 0-10.4-8.44-18.82-18.84-18.82s-18.83 8.43-18.83 18.83c0 10.4 8.43 18.84 18.83 18.84M292.62 9.38c10.4 0 18.84-8.43 18.84-18.83 0-10.4-8.44-18.83-18.84-18.83S273.8-19.85 273.8-9.45c0 10.4 8.42 18.83 18.82 18.83M292.62 47.05c10.4 0 18.84-8.44 18.84-18.83 0-10.4-8.44-18.84-18.84-18.84S273.8 17.8 273.8 28.22c0 10.4 8.42 18.83 18.82 18.83M292.62 84.7c10.4 0 18.84-8.42 18.84-18.82s-8.44-18.83-18.84-18.83-18.83 8.43-18.83 18.83c0 10.4 8.42 18.83 18.82 18.83M-3.98 179.97c10.4 0 18.83-8.44 18.83-18.84S6.42 142.3-3.98 142.3s-18.83 8.43-18.83 18.83c-.02 10.4 8.42 18.84 18.82 18.84M-3.98 217.63c10.4 0 18.83-8.43 18.83-18.83 0-10.4-8.43-18.83-18.83-18.83S-22.8 188.4-22.8 198.8c-.02 10.4 8.42 18.83 18.82 18.83M-3.98 255.3c10.4 0 18.83-8.44 18.83-18.84s-8.43-18.83-18.83-18.83-18.83 8.43-18.83 18.83c-.02 10.4 8.42 18.83 18.82 18.83M-3.98 292.96c10.4 0 18.83-8.43 18.83-18.83 0-10.4-8.43-18.84-18.83-18.84s-18.83 8.43-18.83 18.83c-.02 10.4 8.42 18.83 18.82 18.83M-3.98 330.62c10.4 0 18.83-8.43 18.83-18.83 0-10.4-8.43-18.84-18.83-18.84S-22.8 301.4-22.8 311.8C-22.83 322.2-14.4 330.6-4 330.6M-3.98 368.28c10.4 0 18.83-8.43 18.83-18.83 0-10.4-8.43-18.83-18.83-18.83s-18.83 8.43-18.83 18.83c-.02 10.4 8.42 18.83 18.82 18.83M-3.98 142.3c10.4 0 18.83-8.43 18.83-18.83 0-10.4-8.43-18.83-18.83-18.83s-18.83 8.43-18.83 18.83c-.02 10.4 8.42 18.83 18.82 18.83M28.97 161.13c10.4 0 18.84-8.43 18.84-18.83 0-10.4-8.43-18.83-18.83-18.83-10.4 0-18.83 8.43-18.83 18.83 0 10.4 8.43 18.83 18.83 18.83M28.97 198.8c10.4 0 18.84-8.43 18.84-18.83 0-10.4-8.43-18.84-18.83-18.84-10.4 0-18.83 8.44-18.83 18.84s8.43 18.83 18.83 18.83M28.97 236.46c10.4 0 18.84-8.43 18.84-18.83s-8.43-18.83-18.83-18.83c-10.4 0-18.83 8.43-18.83 18.83 0 10.4 8.43 18.83 18.83 18.83M28.97 274.13c10.4 0 18.84-8.43 18.84-18.83 0-10.4-8.43-18.84-18.83-18.84-10.4 0-18.83 8.44-18.83 18.84s8.43 18.83 18.83 18.83M28.97 311.8c10.4 0 18.84-8.44 18.84-18.84s-8.43-18.84-18.83-18.84c-10.4 0-18.83 8.44-18.83 18.84s8.43 18.83 18.83 18.83M28.97 349.45c10.4 0 18.84-8.43 18.84-18.83 0-10.4-8.43-18.83-18.83-18.83-10.4 0-18.83 8.42-18.83 18.82s8.43 18.83 18.83 18.83M28.97 123.47c10.4 0 18.84-8.43 18.84-18.83 0-10.4-8.43-18.83-18.83-18.83-10.4 0-18.83 8.44-18.83 18.84s8.43 18.83 18.83 18.83M61.93 179.97c10.4 0 18.83-8.44 18.83-18.84s-8.43-18.83-18.83-18.83c-10.4 0-18.83 8.43-18.83 18.83 0 10.4 8.43 18.84 18.83 18.84M61.93 217.63c10.4 0 18.83-8.43 18.83-18.83 0-10.4-8.43-18.83-18.83-18.83-10.4 0-18.83 8.43-18.83 18.83 0 10.4 8.43 18.83 18.83 18.83M61.93 255.3c10.4 0 18.83-8.44 18.83-18.84s-8.43-18.83-18.83-18.83c-10.4 0-18.83 8.43-18.83 18.83 0 10.4 8.43 18.83 18.83 18.83M61.93 292.96c10.4 0 18.83-8.43 18.83-18.83 0-10.4-8.43-18.84-18.83-18.84-10.4 0-18.83 8.43-18.83 18.83 0 10.4 8.43 18.83 18.83 18.83M61.93 330.62c10.4 0 18.83-8.43 18.83-18.83 0-10.4-8.43-18.84-18.83-18.84-10.4 0-18.83 8.43-18.83 18.83 0 10.4 8.43 18.82 18.83 18.82M61.93 368.28c10.4 0 18.83-8.43 18.83-18.83 0-10.4-8.43-18.83-18.83-18.83-10.4 0-18.83 8.43-18.83 18.83 0 10.4 8.43 18.83 18.83 18.83M61.93 142.3c10.4 0 18.83-8.43 18.83-18.83 0-10.4-8.43-18.83-18.83-18.83-10.4 0-18.83 8.43-18.83 18.83 0 10.4 8.43 18.83 18.83 18.83M94.89 161.13c10.38 0 18.82-8.43 18.82-18.83 0-10.4-8.43-18.83-18.83-18.83s-18.85 8.43-18.85 18.83c0 10.4 8.43 18.83 18.84 18.83M94.89 198.8c10.38 0 18.82-8.43 18.82-18.83 0-10.4-8.43-18.84-18.83-18.84s-18.85 8.44-18.85 18.84 8.43 18.83 18.84 18.83M94.89 236.46c10.38 0 18.82-8.43 18.82-18.83S105.3 198.8 94.9 198.8s-18.85 8.43-18.85 18.83c0 10.4 8.43 18.83 18.84 18.83M94.89 274.13c10.38 0 18.82-8.43 18.82-18.83 0-10.4-8.43-18.84-18.83-18.84s-18.85 8.44-18.85 18.84 8.43 18.83 18.84 18.83M94.89 311.8c10.38 0 18.82-8.44 18.82-18.84s-8.43-18.84-18.83-18.84-18.85 8.44-18.85 18.84 8.43 18.83 18.84 18.83M94.89 349.45c10.38 0 18.82-8.43 18.82-18.83 0-10.4-8.43-18.83-18.83-18.83s-18.85 8.42-18.85 18.82 8.43 18.83 18.84 18.83M94.89 123.47c10.38 0 18.82-8.43 18.82-18.83 0-10.4-8.43-18.83-18.83-18.83s-18.85 8.44-18.85 18.84 8.43 18.83 18.84 18.83M127.84 179.97c10.4 0 18.83-8.44 18.83-18.84s-8.43-18.83-18.83-18.83S109 150.73 109 161.13c0 10.4 8.44 18.84 18.84 18.84M127.84 217.63c10.4 0 18.83-8.43 18.83-18.83 0-10.4-8.43-18.83-18.83-18.83S109 188.4 109 198.8c0 10.4 8.44 18.83 18.84 18.83M127.84 255.3c10.4 0 18.83-8.44 18.83-18.84s-8.43-18.83-18.83-18.83S109 226.06 109 236.46c0 10.4 8.44 18.83 18.84 18.83M127.84 292.96c10.4 0 18.83-8.43 18.83-18.83 0-10.4-8.43-18.84-18.83-18.84S109 263.72 109 274.12c0 10.4 8.44 18.83 18.84 18.83M127.84 330.62c10.4 0 18.83-8.43 18.83-18.83 0-10.4-8.43-18.84-18.83-18.84S109 301.4 109 311.8c0 10.4 8.44 18.82 18.84 18.82M127.84 368.28c10.4 0 18.83-8.43 18.83-18.83 0-10.4-8.43-18.83-18.83-18.83S109 339.05 109 349.45c0 10.4 8.44 18.83 18.84 18.83M127.84 142.3c10.4 0 18.83-8.43 18.83-18.83 0-10.4-8.43-18.83-18.83-18.83S109 113.07 109 123.47c0 10.4 8.44 18.83 18.84 18.83M160.8 161.13c10.4 0 18.83-8.43 18.83-18.83 0-10.4-8.44-18.83-18.83-18.83-10.4 0-18.84 8.43-18.84 18.83 0 10.4 8.44 18.83 18.84 18.83M160.8 198.8c10.4 0 18.83-8.43 18.83-18.83 0-10.4-8.44-18.84-18.83-18.84-10.4 0-18.84 8.44-18.84 18.84s8.44 18.83 18.84 18.83M160.8 236.46c10.4 0 18.83-8.43 18.83-18.83s-8.44-18.83-18.83-18.83c-10.4 0-18.84 8.43-18.84 18.83 0 10.4 8.44 18.83 18.84 18.83M160.8 274.13c10.4 0 18.83-8.43 18.83-18.83 0-10.4-8.44-18.84-18.83-18.84-10.4 0-18.84 8.44-18.84 18.84s8.44 18.83 18.84 18.83M160.8 311.8c10.4 0 18.83-8.44 18.83-18.84s-8.44-18.84-18.83-18.84c-10.4 0-18.84 8.44-18.84 18.84s8.44 18.83 18.84 18.83M160.8 349.45c10.4 0 18.83-8.43 18.83-18.83 0-10.4-8.44-18.83-18.83-18.83-10.4 0-18.84 8.42-18.84 18.82s8.44 18.83 18.84 18.83M160.8 123.47c10.4 0 18.83-8.43 18.83-18.83 0-10.4-8.44-18.83-18.83-18.83-10.4 0-18.84 8.44-18.84 18.84s8.44 18.83 18.84 18.83M193.75 179.97c10.4 0 18.83-8.44 18.83-18.84s-8.43-18.83-18.83-18.83c-10.4 0-18.83 8.43-18.83 18.83 0 10.4 8.43 18.84 18.83 18.84M193.75 217.63c10.4 0 18.83-8.43 18.83-18.83 0-10.4-8.43-18.83-18.83-18.83-10.4 0-18.83 8.43-18.83 18.83 0 10.4 8.43 18.83 18.83 18.83M193.75 255.3c10.4 0 18.83-8.44 18.83-18.84s-8.43-18.83-18.83-18.83c-10.4 0-18.83 8.43-18.83 18.83 0 10.4 8.43 18.83 18.83 18.83M193.75 292.96c10.4 0 18.83-8.43 18.83-18.83 0-10.4-8.43-18.84-18.83-18.84-10.4 0-18.83 8.43-18.83 18.83 0 10.4 8.43 18.83 18.83 18.83M193.75 330.62c10.4 0 18.83-8.43 18.83-18.83 0-10.4-8.43-18.84-18.83-18.84-10.4 0-18.83 8.43-18.83 18.83 0 10.4 8.43 18.82 18.83 18.82M193.75 368.28c10.4 0 18.83-8.43 18.83-18.83 0-10.4-8.43-18.83-18.83-18.83-10.4 0-18.83 8.43-18.83 18.83 0 10.4 8.43 18.83 18.83 18.83M193.75 142.3c10.4 0 18.83-8.43 18.83-18.83 0-10.4-8.43-18.83-18.83-18.83-10.4 0-18.83 8.43-18.83 18.83 0 10.4 8.43 18.83 18.83 18.83M226.7 161.13c10.4 0 18.84-8.43 18.84-18.83 0-10.4-8.44-18.83-18.83-18.83-10.4 0-18.83 8.43-18.83 18.83 0 10.4 8.44 18.83 18.84 18.83M226.7 198.8c10.4 0 18.84-8.43 18.84-18.83 0-10.4-8.44-18.84-18.83-18.84-10.4 0-18.83 8.44-18.83 18.84s8.44 18.83 18.84 18.83M226.7 236.46c10.4 0 18.84-8.43 18.84-18.83s-8.44-18.83-18.83-18.83c-10.4 0-18.83 8.43-18.83 18.83 0 10.4 8.44 18.83 18.84 18.83M226.7 274.13c10.4 0 18.84-8.43 18.84-18.83 0-10.4-8.44-18.84-18.83-18.84-10.4 0-18.83 8.44-18.83 18.84s8.44 18.83 18.84 18.83M226.7 311.8c10.4 0 18.84-8.44 18.84-18.84s-8.44-18.84-18.83-18.84c-10.4 0-18.83 8.44-18.83 18.84s8.44 18.83 18.84 18.83M226.7 349.45c10.4 0 18.84-8.43 18.84-18.83 0-10.4-8.44-18.83-18.83-18.83-10.4 0-18.83 8.42-18.83 18.82s8.44 18.83 18.84 18.83M226.7 123.47c10.4 0 18.84-8.43 18.84-18.83 0-10.4-8.44-18.83-18.83-18.83-10.4 0-18.83 8.44-18.83 18.84s8.44 18.83 18.84 18.83M259.66 179.97c10.4 0 18.83-8.44 18.83-18.84s-8.44-18.83-18.84-18.83-18.83 8.43-18.83 18.83c0 10.4 8.43 18.84 18.83 18.84M259.66 217.63c10.4 0 18.83-8.43 18.83-18.83 0-10.4-8.44-18.83-18.84-18.83s-18.83 8.43-18.83 18.83c0 10.4 8.43 18.83 18.83 18.83M259.66 255.3c10.4 0 18.83-8.44 18.83-18.84s-8.44-18.83-18.84-18.83-18.83 8.43-18.83 18.83c0 10.4 8.43 18.83 18.83 18.83M259.66 292.96c10.4 0 18.83-8.43 18.83-18.83 0-10.4-8.44-18.84-18.84-18.84s-18.83 8.43-18.83 18.83c0 10.4 8.43 18.83 18.83 18.83M259.66 330.62c10.4 0 18.83-8.43 18.83-18.83 0-10.4-8.44-18.84-18.84-18.84s-18.83 8.43-18.83 18.83c0 10.4 8.43 18.82 18.83 18.82M259.66 368.28c10.4 0 18.83-8.43 18.83-18.83 0-10.4-8.44-18.83-18.84-18.83s-18.83 8.43-18.83 18.83c0 10.4 8.43 18.83 18.83 18.83M259.66 142.3c10.4 0 18.83-8.43 18.83-18.83 0-10.4-8.44-18.83-18.84-18.83s-18.83 8.43-18.83 18.83c0 10.4 8.43 18.83 18.83 18.83M292.62 161.13c10.4 0 18.84-8.43 18.84-18.83 0-10.4-8.44-18.83-18.84-18.83s-18.83 8.43-18.83 18.83c0 10.4 8.42 18.83 18.82 18.83M292.62 198.8c10.4 0 18.84-8.43 18.84-18.83 0-10.4-8.44-18.84-18.84-18.84s-18.83 8.44-18.83 18.84 8.42 18.83 18.82 18.83M292.62 236.46c10.4 0 18.84-8.43 18.84-18.83s-8.44-18.83-18.84-18.83-18.83 8.43-18.83 18.83c0 10.4 8.42 18.83 18.82 18.83M292.62 274.13c10.4 0 18.84-8.43 18.84-18.83 0-10.4-8.44-18.84-18.84-18.84s-18.83 8.44-18.83 18.84 8.42 18.83 18.82 18.83M292.62 311.8c10.4 0 18.84-8.44 18.84-18.84s-8.44-18.84-18.84-18.84-18.83 8.44-18.83 18.84 8.42 18.83 18.82 18.83M292.62 349.45c10.4 0 18.84-8.43 18.84-18.83 0-10.4-8.44-18.83-18.84-18.83s-18.83 8.42-18.83 18.82 8.42 18.83 18.82 18.83M292.62 123.47c10.4 0 18.84-8.43 18.84-18.83 0-10.4-8.44-18.83-18.84-18.83s-18.83 8.44-18.83 18.84 8.42 18.83 18.82 18.83M-3.98 292.96c10.4 0 18.83-8.43 18.83-18.83 0-10.4-8.43-18.84-18.83-18.84s-18.83 8.43-18.83 18.83c-.02 10.4 8.42 18.83 18.82 18.83M-3.98 330.62c10.4 0 18.83-8.43 18.83-18.83 0-10.4-8.43-18.84-18.83-18.84S-22.8 301.4-22.8 311.8C-22.83 322.2-14.4 330.6-4 330.6M-3.98 368.28c10.4 0 18.83-8.43 18.83-18.83 0-10.4-8.43-18.83-18.83-18.83s-18.83 8.43-18.83 18.83c-.02 10.4 8.42 18.83 18.82 18.83M28.97 311.8c10.4 0 18.84-8.44 18.84-18.84s-8.43-18.84-18.83-18.84c-10.4 0-18.83 8.44-18.83 18.84s8.43 18.83 18.83 18.83M28.97 349.45c10.4 0 18.84-8.43 18.84-18.83 0-10.4-8.43-18.83-18.83-18.83-10.4 0-18.83 8.42-18.83 18.82s8.43 18.83 18.83 18.83M61.93 292.96c10.4 0 18.83-8.43 18.83-18.83 0-10.4-8.43-18.84-18.83-18.84-10.4 0-18.83 8.43-18.83 18.83 0 10.4 8.43 18.83 18.83 18.83M61.93 330.62c10.4 0 18.83-8.43 18.83-18.83 0-10.4-8.43-18.84-18.83-18.84-10.4 0-18.83 8.43-18.83 18.83 0 10.4 8.43 18.82 18.83 18.82M61.93 368.28c10.4 0 18.83-8.43 18.83-18.83 0-10.4-8.43-18.83-18.83-18.83-10.4 0-18.83 8.43-18.83 18.83 0 10.4 8.43 18.83 18.83 18.83M94.89 311.8c10.38 0 18.82-8.44 18.82-18.84s-8.43-18.84-18.83-18.84-18.85 8.44-18.85 18.84 8.43 18.83 18.84 18.83M94.89 349.45c10.38 0 18.82-8.43 18.82-18.83 0-10.4-8.43-18.83-18.83-18.83s-18.85 8.42-18.85 18.82 8.43 18.83 18.84 18.83M127.84 292.96c10.4 0 18.83-8.43 18.83-18.83 0-10.4-8.43-18.84-18.83-18.84S109 263.72 109 274.12c0 10.4 8.44 18.83 18.84 18.83M127.84 330.62c10.4 0 18.83-8.43 18.83-18.83 0-10.4-8.43-18.84-18.83-18.84S109 301.4 109 311.8c0 10.4 8.44 18.82 18.84 18.82M127.84 368.28c10.4 0 18.83-8.43 18.83-18.83 0-10.4-8.43-18.83-18.83-18.83S109 339.05 109 349.45c0 10.4 8.44 18.83 18.84 18.83M160.8 311.8c10.4 0 18.83-8.44 18.83-18.84s-8.44-18.84-18.83-18.84c-10.4 0-18.84 8.44-18.84 18.84s8.44 18.83 18.84 18.83M160.8 349.45c10.4 0 18.83-8.43 18.83-18.83 0-10.4-8.44-18.83-18.83-18.83-10.4 0-18.84 8.42-18.84 18.82s8.44 18.83 18.84 18.83M193.75 292.96c10.4 0 18.83-8.43 18.83-18.83 0-10.4-8.43-18.84-18.83-18.84-10.4 0-18.83 8.43-18.83 18.83 0 10.4 8.43 18.83 18.83 18.83M193.75 330.62c10.4 0 18.83-8.43 18.83-18.83 0-10.4-8.43-18.84-18.83-18.84-10.4 0-18.83 8.43-18.83 18.83 0 10.4 8.43 18.82 18.83 18.82M193.75 368.28c10.4 0 18.83-8.43 18.83-18.83 0-10.4-8.43-18.83-18.83-18.83-10.4 0-18.83 8.43-18.83 18.83 0 10.4 8.43 18.83 18.83 18.83M226.7 311.8c10.4 0 18.84-8.44 18.84-18.84s-8.44-18.84-18.83-18.84c-10.4 0-18.83 8.44-18.83 18.84s8.44 18.83 18.84 18.83M226.7 349.45c10.4 0 18.84-8.43 18.84-18.83 0-10.4-8.44-18.83-18.83-18.83-10.4 0-18.83 8.42-18.83 18.82s8.44 18.83 18.84 18.83M259.66 292.96c10.4 0 18.83-8.43 18.83-18.83 0-10.4-8.44-18.84-18.84-18.84s-18.83 8.43-18.83 18.83c0 10.4 8.43 18.83 18.83 18.83M259.66 330.62c10.4 0 18.83-8.43 18.83-18.83 0-10.4-8.44-18.84-18.84-18.84s-18.83 8.43-18.83 18.83c0 10.4 8.43 18.82 18.83 18.82M259.66 368.28c10.4 0 18.83-8.43 18.83-18.83 0-10.4-8.44-18.83-18.84-18.83s-18.83 8.43-18.83 18.83c0 10.4 8.43 18.83 18.83 18.83M292.62 311.8c10.4 0 18.84-8.44 18.84-18.84s-8.44-18.84-18.84-18.84-18.83 8.44-18.83 18.84 8.42 18.83 18.82 18.83M292.62 349.45c10.4 0 18.84-8.43 18.84-18.83 0-10.4-8.44-18.83-18.84-18.83s-18.83 8.42-18.83 18.82 8.42 18.83 18.82 18.83M-3.98 405.95c10.4 0 18.83-8.43 18.83-18.83 0-10.4-8.43-18.84-18.83-18.84s-18.83 8.44-18.83 18.84c-.02 10.4 8.42 18.83 18.82 18.83M-3.98 443.6c10.4 0 18.83-8.42 18.83-18.82s-8.43-18.83-18.83-18.83-18.83 8.43-18.83 18.83c-.02 10.4 8.42 18.83 18.82 18.83M-3.98 481.27c10.4 0 18.83-8.43 18.83-18.83 0-10.4-8.43-18.83-18.83-18.83s-18.83 8.44-18.83 18.84c-.02 10.4 8.42 18.83 18.82 18.83M28.97 387.12c10.4 0 18.84-8.44 18.84-18.84s-8.43-18.83-18.83-18.83c-10.4 0-18.83 8.43-18.83 18.83 0 10.4 8.43 18.84 18.83 18.84M28.97 424.78c10.4 0 18.84-8.43 18.84-18.83s-8.43-18.83-18.83-18.83c-10.4 0-18.83 8.43-18.83 18.83 0 10.4 8.43 18.83 18.83 18.83M28.97 462.44c10.4 0 18.84-8.43 18.84-18.83 0-10.4-8.43-18.82-18.83-18.82-10.4 0-18.83 8.43-18.83 18.83 0 10.4 8.43 18.84 18.83 18.84M61.93 405.95c10.4 0 18.83-8.43 18.83-18.83 0-10.4-8.43-18.84-18.83-18.84-10.4 0-18.83 8.44-18.83 18.84s8.43 18.83 18.83 18.83M61.93 443.6c10.4 0 18.83-8.42 18.83-18.82s-8.43-18.83-18.83-18.83c-10.4 0-18.83 8.43-18.83 18.83 0 10.4 8.43 18.83 18.83 18.83M61.93 481.27c10.4 0 18.83-8.43 18.83-18.83 0-10.4-8.43-18.83-18.83-18.83-10.4 0-18.83 8.44-18.83 18.84s8.43 18.83 18.83 18.83M94.89 387.12c10.38 0 18.82-8.44 18.82-18.84s-8.43-18.83-18.83-18.83-18.85 8.43-18.85 18.83c0 10.4 8.43 18.84 18.84 18.84M94.89 424.78c10.38 0 18.82-8.43 18.82-18.83s-8.43-18.83-18.83-18.83-18.85 8.43-18.85 18.83 8.43 18.83 18.84 18.83M94.89 462.44c10.38 0 18.82-8.43 18.82-18.83 0-10.4-8.43-18.82-18.83-18.82s-18.85 8.43-18.85 18.83c0 10.4 8.43 18.84 18.84 18.84M127.84 405.95c10.4 0 18.83-8.43 18.83-18.83 0-10.4-8.43-18.84-18.83-18.84S109 376.72 109 387.12s8.44 18.83 18.84 18.83M127.84 443.6c10.4 0 18.83-8.42 18.83-18.82s-8.43-18.83-18.83-18.83S109 414.38 109 424.78c0 10.4 8.44 18.83 18.84 18.83M127.84 481.27c10.4 0 18.83-8.43 18.83-18.83 0-10.4-8.43-18.83-18.83-18.83S109 452.05 109 462.45s8.44 18.83 18.84 18.83M160.8 387.12c10.4 0 18.83-8.44 18.83-18.84s-8.44-18.83-18.83-18.83c-10.4 0-18.84 8.43-18.84 18.83 0 10.4 8.44 18.84 18.84 18.84M160.8 424.78c10.4 0 18.83-8.43 18.83-18.83s-8.44-18.83-18.83-18.83c-10.4 0-18.84 8.43-18.84 18.83s8.44 18.83 18.84 18.83M160.8 462.44c10.4 0 18.83-8.43 18.83-18.83 0-10.4-8.44-18.82-18.83-18.82-10.4 0-18.84 8.43-18.84 18.83 0 10.4 8.44 18.84 18.84 18.84M193.75 405.95c10.4 0 18.83-8.43 18.83-18.83 0-10.4-8.43-18.84-18.83-18.84-10.4 0-18.83 8.44-18.83 18.84s8.43 18.83 18.83 18.83M193.75 443.6c10.4 0 18.83-8.42 18.83-18.82s-8.43-18.83-18.83-18.83c-10.4 0-18.83 8.43-18.83 18.83 0 10.4 8.43 18.83 18.83 18.83M193.75 481.27c10.4 0 18.83-8.43 18.83-18.83 0-10.4-8.43-18.83-18.83-18.83-10.4 0-18.83 8.44-18.83 18.84s8.43 18.83 18.83 18.83M226.7 387.12c10.4 0 18.84-8.44 18.84-18.84s-8.44-18.83-18.83-18.83c-10.4 0-18.83 8.43-18.83 18.83 0 10.4 8.44 18.84 18.84 18.84M226.7 424.78c10.4 0 18.84-8.43 18.84-18.83s-8.44-18.83-18.83-18.83c-10.4 0-18.83 8.43-18.83 18.83s8.44 18.83 18.84 18.83M226.7 462.44c10.4 0 18.84-8.43 18.84-18.83 0-10.4-8.44-18.82-18.83-18.82-10.4 0-18.83 8.43-18.83 18.83 0 10.4 8.44 18.84 18.84 18.84M259.66 405.95c10.4 0 18.83-8.43 18.83-18.83 0-10.4-8.44-18.84-18.84-18.84s-18.83 8.44-18.83 18.84 8.43 18.83 18.83 18.83M259.66 443.6c10.4 0 18.83-8.42 18.83-18.82s-8.44-18.83-18.84-18.83-18.83 8.43-18.83 18.83c0 10.4 8.43 18.83 18.83 18.83M259.66 481.27c10.4 0 18.83-8.43 18.83-18.83 0-10.4-8.44-18.83-18.84-18.83s-18.83 8.44-18.83 18.84 8.43 18.83 18.83 18.83M292.62 387.12c10.4 0 18.84-8.44 18.84-18.84s-8.44-18.83-18.84-18.83-18.83 8.43-18.83 18.83c0 10.4 8.42 18.84 18.82 18.84M292.62 424.78c10.4 0 18.84-8.43 18.84-18.83s-8.44-18.83-18.84-18.83-18.83 8.43-18.83 18.83 8.42 18.83 18.82 18.83M292.62 462.44c10.4 0 18.84-8.43 18.84-18.83 0-10.4-8.44-18.82-18.84-18.82s-18.83 8.43-18.83 18.83c0 10.4 8.42 18.84 18.82 18.84M-3.98 405.95c10.4 0 18.83-8.43 18.83-18.83 0-10.4-8.43-18.84-18.83-18.84s-18.83 8.44-18.83 18.84c-.02 10.4 8.42 18.83 18.82 18.83M-3.98 443.6c10.4 0 18.83-8.42 18.83-18.82s-8.43-18.83-18.83-18.83-18.83 8.43-18.83 18.83c-.02 10.4 8.42 18.83 18.82 18.83M-3.98 481.27c10.4 0 18.83-8.43 18.83-18.83 0-10.4-8.43-18.83-18.83-18.83s-18.83 8.44-18.83 18.84c-.02 10.4 8.42 18.83 18.82 18.83M28.97 424.78c10.4 0 18.84-8.43 18.84-18.83s-8.43-18.83-18.83-18.83c-10.4 0-18.83 8.43-18.83 18.83 0 10.4 8.43 18.83 18.83 18.83M28.97 462.44c10.4 0 18.84-8.43 18.84-18.83 0-10.4-8.43-18.82-18.83-18.82-10.4 0-18.83 8.43-18.83 18.83 0 10.4 8.43 18.84 18.83 18.84M61.93 405.95c10.4 0 18.83-8.43 18.83-18.83 0-10.4-8.43-18.84-18.83-18.84-10.4 0-18.83 8.44-18.83 18.84s8.43 18.83 18.83 18.83M61.93 443.6c10.4 0 18.83-8.42 18.83-18.82s-8.43-18.83-18.83-18.83c-10.4 0-18.83 8.43-18.83 18.83 0 10.4 8.43 18.83 18.83 18.83M61.93 481.27c10.4 0 18.83-8.43 18.83-18.83 0-10.4-8.43-18.83-18.83-18.83-10.4 0-18.83 8.44-18.83 18.84s8.43 18.83 18.83 18.83M94.89 424.78c10.38 0 18.82-8.43 18.82-18.83s-8.43-18.83-18.83-18.83-18.85 8.43-18.85 18.83 8.43 18.83 18.84 18.83M94.89 462.44c10.38 0 18.82-8.43 18.82-18.83 0-10.4-8.43-18.82-18.83-18.82s-18.85 8.43-18.85 18.83c0 10.4 8.43 18.84 18.84 18.84M127.84 405.95c10.4 0 18.83-8.43 18.83-18.83 0-10.4-8.43-18.84-18.83-18.84S109 376.72 109 387.12s8.44 18.83 18.84 18.83M127.84 443.6c10.4 0 18.83-8.42 18.83-18.82s-8.43-18.83-18.83-18.83S109 414.38 109 424.78c0 10.4 8.44 18.83 18.84 18.83M127.84 481.27c10.4 0 18.83-8.43 18.83-18.83 0-10.4-8.43-18.83-18.83-18.83S109 452.05 109 462.45s8.44 18.83 18.84 18.83M160.8 424.78c10.4 0 18.83-8.43 18.83-18.83s-8.44-18.83-18.83-18.83c-10.4 0-18.84 8.43-18.84 18.83s8.44 18.83 18.84 18.83M160.8 462.44c10.4 0 18.83-8.43 18.83-18.83 0-10.4-8.44-18.82-18.83-18.82-10.4 0-18.84 8.43-18.84 18.83 0 10.4 8.44 18.84 18.84 18.84M193.75 405.95c10.4 0 18.83-8.43 18.83-18.83 0-10.4-8.43-18.84-18.83-18.84-10.4 0-18.83 8.44-18.83 18.84s8.43 18.83 18.83 18.83M193.75 443.6c10.4 0 18.83-8.42 18.83-18.82s-8.43-18.83-18.83-18.83c-10.4 0-18.83 8.43-18.83 18.83 0 10.4 8.43 18.83 18.83 18.83M193.75 481.27c10.4 0 18.83-8.43 18.83-18.83 0-10.4-8.43-18.83-18.83-18.83-10.4 0-18.83 8.44-18.83 18.84s8.43 18.83 18.83 18.83M226.7 424.78c10.4 0 18.84-8.43 18.84-18.83s-8.44-18.83-18.83-18.83c-10.4 0-18.83 8.43-18.83 18.83s8.44 18.83 18.84 18.83M226.7 462.44c10.4 0 18.84-8.43 18.84-18.83 0-10.4-8.44-18.82-18.83-18.82-10.4 0-18.83 8.43-18.83 18.83 0 10.4 8.44 18.84 18.84 18.84M259.66 405.95c10.4 0 18.83-8.43 18.83-18.83 0-10.4-8.44-18.84-18.84-18.84s-18.83 8.44-18.83 18.84 8.43 18.83 18.83 18.83M259.66 443.6c10.4 0 18.83-8.42 18.83-18.82s-8.44-18.83-18.84-18.83-18.83 8.43-18.83 18.83c0 10.4 8.43 18.83 18.83 18.83M259.66 481.27c10.4 0 18.83-8.43 18.83-18.83 0-10.4-8.44-18.83-18.84-18.83s-18.83 8.44-18.83 18.84 8.43 18.83 18.83 18.83M292.62 424.78c10.4 0 18.84-8.43 18.84-18.83s-8.44-18.83-18.84-18.83-18.83 8.43-18.83 18.83 8.42 18.83 18.82 18.83M292.62 462.44c10.4 0 18.84-8.43 18.84-18.83 0-10.4-8.44-18.82-18.84-18.82s-18.83 8.43-18.83 18.83c0 10.4 8.42 18.84 18.82 18.84M325.18 28.77c10.4 0 18.83-8.44 18.83-18.84S335.6-8.9 325.2-8.9 306.35-.47 306.35 9.93c0 10.4 8.43 18.84 18.83 18.84M325.18 66.43C335.58 66.43 344 58 344 47.6c0-10.4-8.42-18.84-18.82-18.84s-18.83 8.44-18.83 18.84 8.43 18.83 18.83 18.83M325.18 104.1c10.4 0 18.83-8.44 18.83-18.84s-8.42-18.83-18.82-18.83-18.83 8.43-18.83 18.83c0 10.4 8.43 18.83 18.83 18.83M358.14 9.93c10.4 0 18.83-8.43 18.83-18.83 0-10.4-8.43-18.83-18.83-18.83-10.4 0-18.84 8.43-18.84 18.83 0 10.4 8.44 18.83 18.84 18.83M358.14 47.6c10.4 0 18.83-8.44 18.83-18.83 0-10.4-8.43-18.84-18.83-18.84-10.4 0-18.84 8.44-18.84 18.84s8.44 18.82 18.84 18.82M358.14 85.26c10.4 0 18.83-8.43 18.83-18.83 0-10.4-8.43-18.84-18.83-18.84-10.4 0-18.84 8.43-18.84 18.83 0 10.4 8.44 18.83 18.84 18.83M391.1 28.77c10.4 0 18.82-8.44 18.82-18.84S401.5-8.9 391.1-8.9c-10.4 0-18.84 8.43-18.84 18.83 0 10.4 8.43 18.84 18.83 18.84M391.1 66.43c10.4 0 18.82-8.43 18.82-18.83 0-10.4-8.43-18.84-18.83-18.84-10.4 0-18.84 8.44-18.84 18.84s8.43 18.83 18.83 18.83M391.1 104.1c10.4 0 18.82-8.44 18.82-18.84s-8.43-18.83-18.83-18.83c-10.4 0-18.84 8.43-18.84 18.83 0 10.4 8.43 18.83 18.83 18.83M424.05 9.93c10.4 0 18.83-8.43 18.83-18.83 0-10.4-8.43-18.83-18.83-18.83-10.4 0-18.83 8.43-18.83 18.83 0 10.4 8.43 18.83 18.83 18.83M424.05 47.6c10.4 0 18.83-8.44 18.83-18.83 0-10.4-8.43-18.84-18.83-18.84-10.4 0-18.83 8.44-18.83 18.84s8.43 18.82 18.83 18.82M424.05 85.26c10.4 0 18.83-8.43 18.83-18.83 0-10.4-8.43-18.84-18.83-18.84-10.4 0-18.83 8.43-18.83 18.83 0 10.4 8.43 18.83 18.83 18.83M325.18 180.52c10.4 0 18.83-8.44 18.83-18.84s-8.42-18.83-18.82-18.83-18.83 8.43-18.83 18.83c0 10.4 8.43 18.84 18.83 18.84M325.18 218.18c10.4 0 18.83-8.43 18.83-18.83s-8.42-18.83-18.82-18.83-18.83 8.43-18.83 18.83 8.43 18.83 18.83 18.83M325.18 255.84c10.4 0 18.83-8.43 18.83-18.83 0-10.4-8.42-18.82-18.82-18.82s-18.83 8.43-18.83 18.83c0 10.4 8.43 18.84 18.83 18.84M325.18 293.5c10.4 0 18.83-8.43 18.83-18.83 0-10.4-8.42-18.83-18.82-18.83s-18.83 8.43-18.83 18.83c0 10.4 8.43 18.83 18.83 18.83M325.18 331.17c10.4 0 18.83-8.43 18.83-18.83 0-10.4-8.42-18.84-18.82-18.84s-18.83 8.44-18.83 18.84 8.43 18.83 18.83 18.83M325.18 368.83c10.4 0 18.83-8.43 18.83-18.83 0-10.4-8.42-18.83-18.82-18.83s-18.83 8.43-18.83 18.83c0 10.4 8.43 18.83 18.83 18.83M325.18 142.85c10.4 0 18.83-8.43 18.83-18.83 0-10.4-8.42-18.83-18.82-18.83s-18.83 8.42-18.83 18.82 8.43 18.83 18.83 18.83M358.14 161.68c10.4 0 18.83-8.43 18.83-18.83 0-10.4-8.43-18.83-18.83-18.83-10.4 0-18.84 8.43-18.84 18.83 0 10.4 8.44 18.83 18.84 18.83M358.14 199.35c10.4 0 18.83-8.43 18.83-18.83 0-10.4-8.43-18.84-18.83-18.84-10.4 0-18.84 8.43-18.84 18.84 0 10.4 8.44 18.83 18.84 18.83M358.14 237c10.4 0 18.83-8.42 18.83-18.82s-8.43-18.83-18.83-18.83c-10.4 0-18.84 8.43-18.84 18.83 0 10.4 8.44 18.83 18.84 18.83M358.14 274.67c10.4 0 18.83-8.43 18.83-18.83 0-10.4-8.43-18.83-18.83-18.83-10.4 0-18.84 8.44-18.84 18.84s8.44 18.83 18.84 18.83M358.14 312.34c10.4 0 18.83-8.43 18.83-18.83 0-10.4-8.43-18.83-18.83-18.83-10.4 0-18.84 8.44-18.84 18.84s8.44 18.84 18.84 18.84M358.14 350c10.4 0 18.83-8.43 18.83-18.83 0-10.4-8.43-18.83-18.83-18.83-10.4 0-18.84 8.43-18.84 18.83 0 10.4 8.44 18.83 18.84 18.83M358.14 124.02c10.4 0 18.83-8.43 18.83-18.83 0-10.4-8.43-18.85-18.83-18.85-10.4 0-18.84 8.44-18.84 18.84S347.74 124 358.14 124M391.1 180.52c10.4 0 18.82-8.44 18.82-18.84s-8.43-18.83-18.83-18.83c-10.4 0-18.84 8.43-18.84 18.83 0 10.4 8.43 18.84 18.83 18.84M391.1 218.18c10.4 0 18.82-8.43 18.82-18.83s-8.43-18.83-18.83-18.83c-10.4 0-18.84 8.43-18.84 18.83s8.43 18.83 18.83 18.83M391.1 255.84c10.4 0 18.82-8.43 18.82-18.83 0-10.4-8.43-18.82-18.83-18.82-10.4 0-18.84 8.43-18.84 18.83 0 10.4 8.43 18.84 18.83 18.84M391.1 293.5c10.4 0 18.82-8.43 18.82-18.83 0-10.4-8.43-18.83-18.83-18.83-10.4 0-18.84 8.43-18.84 18.83 0 10.4 8.43 18.83 18.83 18.83M391.1 331.17c10.4 0 18.82-8.43 18.82-18.83 0-10.4-8.43-18.84-18.83-18.84-10.4 0-18.84 8.44-18.84 18.84s8.43 18.83 18.83 18.83M391.1 368.83c10.4 0 18.82-8.43 18.82-18.83 0-10.4-8.43-18.83-18.83-18.83-10.4 0-18.84 8.43-18.84 18.83 0 10.4 8.43 18.83 18.83 18.83M391.1 142.85c10.4 0 18.82-8.43 18.82-18.83 0-10.4-8.43-18.83-18.83-18.83-10.4 0-18.84 8.42-18.84 18.82s8.43 18.83 18.83 18.83M424.05 161.68c10.4 0 18.83-8.43 18.83-18.83 0-10.4-8.43-18.83-18.83-18.83-10.4 0-18.83 8.43-18.83 18.83 0 10.4 8.43 18.83 18.83 18.83M424.05 199.35c10.4 0 18.83-8.43 18.83-18.83 0-10.4-8.43-18.84-18.83-18.84-10.4 0-18.83 8.43-18.83 18.84 0 10.4 8.43 18.83 18.83 18.83M424.05 237c10.4 0 18.83-8.42 18.83-18.82s-8.43-18.83-18.83-18.83c-10.4 0-18.83 8.43-18.83 18.83 0 10.4 8.43 18.83 18.83 18.83M424.05 274.67c10.4 0 18.83-8.43 18.83-18.83 0-10.4-8.43-18.83-18.83-18.83-10.4 0-18.83 8.44-18.83 18.84s8.43 18.83 18.83 18.83M424.05 312.34c10.4 0 18.83-8.43 18.83-18.83 0-10.4-8.43-18.83-18.83-18.83-10.4 0-18.83 8.44-18.83 18.84s8.43 18.84 18.83 18.84M424.05 350c10.4 0 18.83-8.43 18.83-18.83 0-10.4-8.43-18.83-18.83-18.83-10.4 0-18.83 8.43-18.83 18.83 0 10.4 8.43 18.83 18.83 18.83M424.05 124.02c10.4 0 18.83-8.43 18.83-18.83 0-10.4-8.43-18.85-18.83-18.85-10.4 0-18.83 8.44-18.83 18.84S413.65 124 424.05 124M325.18 293.5c10.4 0 18.83-8.43 18.83-18.83 0-10.4-8.42-18.83-18.82-18.83s-18.83 8.43-18.83 18.83c0 10.4 8.43 18.83 18.83 18.83M325.18 331.17c10.4 0 18.83-8.43 18.83-18.83 0-10.4-8.42-18.84-18.82-18.84s-18.83 8.44-18.83 18.84 8.43 18.83 18.83 18.83M325.18 368.83c10.4 0 18.83-8.43 18.83-18.83 0-10.4-8.42-18.83-18.82-18.83s-18.83 8.43-18.83 18.83c0 10.4 8.43 18.83 18.83 18.83M358.14 312.34c10.4 0 18.83-8.43 18.83-18.83 0-10.4-8.43-18.83-18.83-18.83-10.4 0-18.84 8.44-18.84 18.84s8.44 18.84 18.84 18.84M358.14 350c10.4 0 18.83-8.43 18.83-18.83 0-10.4-8.43-18.83-18.83-18.83-10.4 0-18.84 8.43-18.84 18.83 0 10.4 8.44 18.83 18.84 18.83M391.1 293.5c10.4 0 18.82-8.43 18.82-18.83 0-10.4-8.43-18.83-18.83-18.83-10.4 0-18.84 8.43-18.84 18.83 0 10.4 8.43 18.83 18.83 18.83M391.1 331.17c10.4 0 18.82-8.43 18.82-18.83 0-10.4-8.43-18.84-18.83-18.84-10.4 0-18.84 8.44-18.84 18.84s8.43 18.83 18.83 18.83M391.1 368.83c10.4 0 18.82-8.43 18.82-18.83 0-10.4-8.43-18.83-18.83-18.83-10.4 0-18.84 8.43-18.84 18.83 0 10.4 8.43 18.83 18.83 18.83M424.05 312.34c10.4 0 18.83-8.43 18.83-18.83 0-10.4-8.43-18.83-18.83-18.83-10.4 0-18.83 8.44-18.83 18.84s8.43 18.84 18.83 18.84M424.05 350c10.4 0 18.83-8.43 18.83-18.83 0-10.4-8.43-18.83-18.83-18.83-10.4 0-18.83 8.43-18.83 18.83 0 10.4 8.43 18.83 18.83 18.83M325.18 406.5c10.4 0 18.83-8.44 18.83-18.84s-8.42-18.83-18.82-18.83-18.83 8.44-18.83 18.83c0 10.4 8.43 18.83 18.83 18.83M325.18 444.16c10.4 0 18.83-8.43 18.83-18.83 0-10.4-8.42-18.83-18.82-18.83s-18.83 8.43-18.83 18.83c0 10.4 8.43 18.83 18.83 18.83M325.18 481.82c10.4 0 18.83-8.43 18.83-18.83 0-10.4-8.42-18.84-18.82-18.84s-18.83 8.43-18.83 18.83c0 10.4 8.43 18.82 18.83 18.82M358.14 387.66c10.4 0 18.83-8.43 18.83-18.83 0-10.4-8.43-18.83-18.83-18.83-10.4 0-18.84 8.43-18.84 18.83 0 10.4 8.44 18.83 18.84 18.83M358.14 425.33c10.4 0 18.83-8.43 18.83-18.83 0-10.4-8.43-18.84-18.83-18.84-10.4 0-18.84 8.44-18.84 18.83 0 10.4 8.44 18.83 18.84 18.83M358.14 463c10.4 0 18.83-8.44 18.83-18.84s-8.43-18.83-18.83-18.83c-10.4 0-18.84 8.43-18.84 18.83 0 10.4 8.44 18.83 18.84 18.83M391.1 406.5c10.4 0 18.82-8.44 18.82-18.84s-8.43-18.83-18.83-18.83c-10.4 0-18.84 8.44-18.84 18.83 0 10.4 8.43 18.83 18.83 18.83M391.1 444.16c10.4 0 18.82-8.43 18.82-18.83 0-10.4-8.43-18.83-18.83-18.83-10.4 0-18.84 8.43-18.84 18.83 0 10.4 8.43 18.83 18.83 18.83M391.1 481.82c10.4 0 18.82-8.43 18.82-18.83 0-10.4-8.43-18.84-18.83-18.84-10.4 0-18.84 8.43-18.84 18.83 0 10.4 8.43 18.82 18.83 18.82M424.05 387.66c10.4 0 18.83-8.43 18.83-18.83 0-10.4-8.43-18.83-18.83-18.83-10.4 0-18.83 8.43-18.83 18.83 0 10.4 8.43 18.83 18.83 18.83M424.05 425.33c10.4 0 18.83-8.43 18.83-18.83 0-10.4-8.43-18.84-18.83-18.84-10.4 0-18.83 8.44-18.83 18.83 0 10.4 8.43 18.83 18.83 18.83M424.05 463c10.4 0 18.83-8.44 18.83-18.84s-8.43-18.83-18.83-18.83c-10.4 0-18.83 8.43-18.83 18.83 0 10.4 8.43 18.83 18.83 18.83M325.18 406.5c10.4 0 18.83-8.44 18.83-18.84s-8.42-18.83-18.82-18.83-18.83 8.44-18.83 18.83c0 10.4 8.43 18.83 18.83 18.83M325.18 444.16c10.4 0 18.83-8.43 18.83-18.83 0-10.4-8.42-18.83-18.82-18.83s-18.83 8.43-18.83 18.83c0 10.4 8.43 18.83 18.83 18.83M325.18 481.82c10.4 0 18.83-8.43 18.83-18.83 0-10.4-8.42-18.84-18.82-18.84s-18.83 8.43-18.83 18.83c0 10.4 8.43 18.82 18.83 18.82M358.14 425.33c10.4 0 18.83-8.43 18.83-18.83 0-10.4-8.43-18.84-18.83-18.84-10.4 0-18.84 8.44-18.84 18.83 0 10.4 8.44 18.83 18.84 18.83M358.14 463c10.4 0 18.83-8.44 18.83-18.84s-8.43-18.83-18.83-18.83c-10.4 0-18.84 8.43-18.84 18.83 0 10.4 8.44 18.83 18.84 18.83M391.1 406.5c10.4 0 18.82-8.44 18.82-18.84s-8.43-18.83-18.83-18.83c-10.4 0-18.84 8.44-18.84 18.83 0 10.4 8.43 18.83 18.83 18.83M391.1 444.16c10.4 0 18.82-8.43 18.82-18.83 0-10.4-8.43-18.83-18.83-18.83-10.4 0-18.84 8.43-18.84 18.83 0 10.4 8.43 18.83 18.83 18.83M391.1 481.82c10.4 0 18.82-8.43 18.82-18.83 0-10.4-8.43-18.84-18.83-18.84-10.4 0-18.84 8.43-18.84 18.83 0 10.4 8.43 18.82 18.83 18.82M424.05 425.33c10.4 0 18.83-8.43 18.83-18.83 0-10.4-8.43-18.84-18.83-18.84-10.4 0-18.83 8.44-18.83 18.83 0 10.4 8.43 18.83 18.83 18.83M424.05 463c10.4 0 18.83-8.44 18.83-18.84s-8.43-18.83-18.83-18.83c-10.4 0-18.83 8.43-18.83 18.83 0 10.4 8.43 18.83 18.83 18.83M457.52 28.77c10.4 0 18.84-8.44 18.84-18.84S467.92-8.9 457.52-8.9 438.7-.47 438.7 9.93c0 10.4 8.43 18.84 18.82 18.84M457.52 66.43c10.4 0 18.84-8.43 18.84-18.83 0-10.4-8.44-18.84-18.84-18.84S438.7 37.2 438.7 47.6s8.43 18.83 18.82 18.83M457.52 104.1c10.4 0 18.84-8.44 18.84-18.84s-8.44-18.83-18.84-18.83-18.83 8.43-18.83 18.83c0 10.4 8.43 18.83 18.82 18.83M457.52 180.52c10.4 0 18.84-8.44 18.84-18.84s-8.44-18.83-18.84-18.83-18.83 8.43-18.83 18.83c0 10.4 8.43 18.84 18.82 18.84M457.52 218.18c10.4 0 18.84-8.43 18.84-18.83s-8.44-18.83-18.84-18.83-18.83 8.43-18.83 18.83 8.43 18.83 18.82 18.83M457.52 255.84c10.4 0 18.84-8.43 18.84-18.83 0-10.4-8.44-18.82-18.84-18.82S438.7 226.6 438.7 237c0 10.4 8.43 18.84 18.82 18.84M457.52 293.5c10.4 0 18.84-8.43 18.84-18.83 0-10.4-8.44-18.83-18.84-18.83s-18.83 8.43-18.83 18.83c0 10.4 8.43 18.83 18.82 18.83M457.52 331.17c10.4 0 18.84-8.43 18.84-18.83 0-10.4-8.44-18.84-18.84-18.84s-18.83 8.44-18.83 18.84 8.43 18.83 18.82 18.83M457.52 368.83c10.4 0 18.84-8.43 18.84-18.83 0-10.4-8.44-18.83-18.84-18.83S438.7 339.6 438.7 350c0 10.4 8.43 18.83 18.82 18.83M457.52 142.85c10.4 0 18.84-8.43 18.84-18.83 0-10.4-8.44-18.83-18.84-18.83S438.7 113.6 438.7 124s8.43 18.83 18.82 18.83M457.52 293.5c10.4 0 18.84-8.43 18.84-18.83 0-10.4-8.44-18.83-18.84-18.83s-18.83 8.43-18.83 18.83c0 10.4 8.43 18.83 18.82 18.83M457.52 331.17c10.4 0 18.84-8.43 18.84-18.83 0-10.4-8.44-18.84-18.84-18.84s-18.83 8.44-18.83 18.84 8.43 18.83 18.82 18.83M457.52 368.83c10.4 0 18.84-8.43 18.84-18.83 0-10.4-8.44-18.83-18.84-18.83S438.7 339.6 438.7 350c0 10.4 8.43 18.83 18.82 18.83M457.52 406.5c10.4 0 18.84-8.44 18.84-18.84s-8.44-18.83-18.84-18.83-18.83 8.44-18.83 18.83c0 10.4 8.43 18.83 18.82 18.83M457.52 444.16c10.4 0 18.84-8.43 18.84-18.83 0-10.4-8.44-18.83-18.84-18.83s-18.83 8.43-18.83 18.83c0 10.4 8.43 18.83 18.82 18.83M457.52 481.82c10.4 0 18.84-8.43 18.84-18.83 0-10.4-8.44-18.84-18.84-18.84S438.7 452.6 438.7 463c0 10.4 8.43 18.82 18.82 18.82M457.52 406.5c10.4 0 18.84-8.44 18.84-18.84s-8.44-18.83-18.84-18.83-18.83 8.44-18.83 18.83c0 10.4 8.43 18.83 18.82 18.83M457.52 444.16c10.4 0 18.84-8.43 18.84-18.83 0-10.4-8.44-18.83-18.84-18.83s-18.83 8.43-18.83 18.83c0 10.4 8.43 18.83 18.82 18.83M457.52 481.82c10.4 0 18.84-8.43 18.84-18.83 0-10.4-8.44-18.84-18.84-18.84S438.7 452.6 438.7 463c0 10.4 8.43 18.82 18.82 18.82"/></g></svg>