<?xml version="1.0" encoding="utf-8"?>
<!-- Generator: Adobe Illustrator 24.3.0, SVG Export Plug-In . SVG Version: 6.00 Build 0)  -->
<svg version="1.1" id="Layer_1" xmlns="http://www.w3.org/2000/svg" xmlns:xlink="http://www.w3.org/1999/xlink" x="0px" y="0px"
	 width="453.5px" height="453.5px" viewBox="0 0 453.5 453.5" style="enable-background:new 0 0 453.5 453.5;" xml:space="preserve"
	>
<style type="text/css">
	.st0{fill:#CCDA8B;}
	.st1{fill:#586B89;}
</style>
<path class="st0" d="M0,0h453.5v453.5H0V0z"/>
<g>
	<path class="st1" d="M82.1-14.2l24,24.1H58L82.1-14.2z M130.2-14.1l24.1-24.1V9.9L130.2-14.1z M130.2-14.1l-24,24.1v-48.1
		L130.2-14.1z M130.4,34.1l24.1,24h-48.1L130.4,34.1z M130.4,34.1L106.3,10h48.1L130.4,34.1z M82.3,34.1L58.2,58.1V10L82.3,34.1z
		 M82.3,34.1l24-24.1v48.1L82.3,34.1z M-14.9-14.2L9.2,9.9h-48.1L-14.9-14.2z M33.2-14.1l24.1-24.1V9.9L33.2-14.1z M33.2-14.1
		L9.2,9.9v-48.1L33.2-14.1z M33.4,34.1l24.1,24H9.4L33.4,34.1z M33.4,34.1L9.4,10h48.1L33.4,34.1z M-14.7,34.1L9.4,10v48.1
		L-14.7,34.1z M275-14.2l24.1,24.1H251L275-14.2z M323.1-14.1l24.1-24.1V9.9L323.1-14.1z M323.1-14.1L299.1,9.9v-48.1L323.1-14.1z
		 M323.3,34.1l24.1,24h-48.1L323.3,34.1z M323.3,34.1L299.3,10h48.1L323.3,34.1z M275.2,34.1l-24.1,24.1V10L275.2,34.1z M275.2,34.1
		l24-24.1v48.1L275.2,34.1z M178.1-14.2l24.1,24.1H154L178.1-14.2z M226.2-14.1l24.1-24.1V9.9L226.2-14.1z M226.2-14.1L202.1,9.9
		v-48.1L226.2-14.1z M226.4,34.1l24.1,24h-48.1L226.4,34.1z M226.4,34.1L202.3,10h48.1L226.4,34.1z M178.2,34.1l-24.1,24.1V10
		L178.2,34.1z M178.2,34.1L202.3,10v48.1L178.2,34.1z M468.4-14.2l24.1,24.1h-48.1L468.4-14.2z M468.6,34.1l-24.1,24.1V10
		L468.6,34.1z M371.5-14.2l24,24.1h-48.1L371.5-14.2z M419.6-14.1l24-24.1V9.9L419.6-14.1z M419.6-14.1L395.5,9.9v-48.1L419.6-14.1z
		 M419.8,34.1l24,24h-48.1L419.8,34.1z M419.8,34.1L395.7,10h48.1L419.8,34.1z M371.6,34.1l-24,24.1V10L371.6,34.1z M371.6,34.1
		L395.7,10v48.1L371.6,34.1z M82.1,82.2L58,58.1h48.1L82.1,82.2z M82.1,82.2l24,24.1H58L82.1,82.2z M130.2,82.2l24.1-24v48.1
		L130.2,82.2z M130.2,82.2l-24.1,24.1V58.2L130.2,82.2z M130.4,130.4l24.1,24.1h-48.1L130.4,130.4z M130.4,130.4l-24.1-24.1h48.1
		L130.4,130.4z M82.3,130.4l-24.1,24.1v-48.1L82.3,130.4z M82.3,130.4l24.1-24.1v48.1L82.3,130.4z M-14.9,82.2l-24-24.1H9.2
		L-14.9,82.2z M-14.9,82.2l24.1,24.1h-48.1L-14.9,82.2z M33.2,82.2l24.1-24v48.1L33.2,82.2z M33.2,82.2L9.2,106.3V58.2L33.2,82.2z
		 M33.4,130.4l24.1,24.1H9.4L33.4,130.4z M33.4,130.4l-24-24h48.1L33.4,130.4z M-14.7,130.4l24.1-24.1v48.1L-14.7,130.4z M275,82.2
		L251,58.1h48.1L275,82.2z M275,82.2l24.1,24.1H251L275,82.2z M323.1,82.2l24.1-24v48.1L323.1,82.2z M323.1,82.2l-24.1,24.1V58.2
		L323.1,82.2z M323.3,130.4l24.1,24.1h-48.1L323.3,130.4z M323.3,130.4l-24.1-24.1h48.1L323.3,130.4z M275.2,130.4l-24.1,24.1v-48.1
		L275.2,130.4z M275.2,130.4l24-24.1v48.1L275.2,130.4z M178.1,82.2L154,58.1h48.1L178.1,82.2z M178.1,82.2l24.1,24.1H154
		L178.1,82.2z M226.2,82.2l24.1-24v48.1L226.2,82.2z M226.2,82.2l-24.1,24.1V58.2L226.2,82.2z M226.4,130.4l24.1,24.1h-48.1
		L226.4,130.4z M226.4,130.4l-24.1-24h48.1L226.4,130.4z M178.2,130.4l-24.1,24.1v-48.1L178.2,130.4z M178.2,130.4l24.1-24.1v48.1
		L178.2,130.4z M468.4,82.2l-24.1-24.1h48.1L468.4,82.2z M468.4,82.2l24.1,24.1h-48.1L468.4,82.2z M468.6,130.4l-24.1,24.1v-48.1
		L468.6,130.4z M371.5,82.2l-24.1-24.1h48.1L371.5,82.2z M371.5,82.2l24.1,24.1h-48.1L371.5,82.2z M419.6,82.2l24-24v48.1
		L419.6,82.2z M419.6,82.2l-24.1,24.1V58.2L419.6,82.2z M419.8,130.4l24,24.1h-48.1L419.8,130.4z M419.8,130.4l-24.1-24h48.1
		L419.8,130.4z M371.6,130.4l-24.1,24.1v-48.1L371.6,130.4z M371.6,130.4l24-24.1v48.1L371.6,130.4z M82.1,178.6L58,154.5h48.1
		L82.1,178.6z M82.1,178.6l24,24.1H58L82.1,178.6z M130.2,178.6l24.1-24.1v48.1L130.2,178.6z M130.2,178.6l-24.1,24.1v-48.1
		L130.2,178.6z M130.4,226.8l24.1,24.1h-48.1L130.4,226.8z M130.4,226.8l-24.1-24.1h48.1L130.4,226.8z M82.3,226.8l-24.1,24.1v-48.1
		L82.3,226.8z M82.3,226.8l24.1-24.1v48.1L82.3,226.8z M-14.9,178.6l-24-24.1H9.2L-14.9,178.6z M-14.9,178.6l24.1,24.1h-48.1
		L-14.9,178.6z M33.2,178.6l24.1-24.1v48.1L33.2,178.6z M33.2,178.6l-24.1,24v-48.1L33.2,178.6z M33.4,226.8l24.1,24.1H9.4
		L33.4,226.8z M33.4,226.8l-24-24.1h48.1L33.4,226.8z M-14.7,226.8l24.1-24.1v48.1L-14.7,226.8z M275,178.6L251,154.5h48.1
		L275,178.6z M275,178.6l24.1,24.1H251L275,178.6z M323.1,178.6l24.1-24.1v48.1L323.1,178.6z M323.1,178.6l-24.1,24.1v-48.1
		L323.1,178.6z M323.3,226.8l24.1,24.1h-48.1L323.3,226.8z M323.3,226.8l-24.1-24.1h48.1L323.3,226.8z M275.2,226.8l-24.1,24.1
		v-48.1L275.2,226.8z M275.2,226.8l24-24.1v48.1L275.2,226.8z M178.1,178.6L154,154.5h48.1L178.1,178.6z M178.1,178.6l24.1,24.1H154
		L178.1,178.6z M226.2,178.6l24.1-24.1v48.1L226.2,178.6z M226.2,178.6l-24.1,24.1v-48.1L226.2,178.6z M226.4,226.8l24.1,24.1h-48.1
		L226.4,226.8z M226.4,226.8l-24.1-24.1h48.1L226.4,226.8z M178.2,226.8l-24.1,24.1v-48.1L178.2,226.8z M178.2,226.8l24.1-24.1v48.1
		L178.2,226.8z M468.4,178.6l-24.1-24.1h48.1L468.4,178.6z M468.4,178.6l24.1,24.1h-48.1L468.4,178.6z M468.6,226.8l-24.1,24.1
		v-48.1L468.6,226.8z M371.5,178.6l-24.1-24.1h48.1L371.5,178.6z M371.5,178.6l24.1,24.1h-48.1L371.5,178.6z M419.6,178.6l24-24.1
		v48.1L419.6,178.6z M419.6,178.6l-24.1,24.1v-48.1L419.6,178.6z M419.8,226.8l24,24.1h-48.1L419.8,226.8z M419.8,226.8l-24.1-24.1
		h48.1L419.8,226.8z M371.6,226.8l-24.1,24.1v-48.1L371.6,226.8z M371.6,226.8l24-24.1v48.1L371.6,226.8z M82.1,274.9L58,250.9h48.1
		L82.1,274.9z M82.1,274.9l24,24H58L82.1,274.9z M130.2,275l24.1-24.1V299L130.2,275z M130.2,275l-24,24v-48.1L130.2,275z
		 M130.4,323.2l24.1,24.1h-48.1L130.4,323.2z M130.4,323.2l-24.1-24h48.1L130.4,323.2z M82.3,323.2l-24.1,24v-48.1L82.3,323.2z
		 M82.3,323.2l24.1-24.1v48.1L82.3,323.2z M-14.9,274.9l-24-24.1H9.2L-14.9,274.9z M-14.9,274.9l24.1,24h-48.1L-14.9,274.9z
		 M33.2,275l24.1-24.1V299L33.2,275z M33.2,275L9.2,299v-48.1L33.2,275z M33.4,323.2l24.1,24.1H9.4L33.4,323.2z M33.4,323.2l-24-24
		h48.1L33.4,323.2z M-14.7,323.2l24.1-24.1v48.1L-14.7,323.2z M275,274.9L251,250.9h48.1L275,274.9z M275,274.9l24.1,24H251
		L275,274.9z M323.1,275l24.1-24.1V299L323.1,275z M323.1,275l-24.1,24v-48.1L323.1,275z M323.3,323.2l24.1,24.1h-48.1L323.3,323.2z
		 M323.3,323.2l-24.1-24h48.1L323.3,323.2z M275.2,323.2l-24.1,24v-48.1L275.2,323.2z M275.2,323.2l24-24.1v48.1L275.2,323.2z
		 M178.1,274.9L154,250.9h48.1L178.1,274.9z M178.1,274.9l24.1,24H154L178.1,274.9z M226.2,275l24.1-24.1V299L226.2,275z M226.2,275
		l-24.1,24v-48.1L226.2,275z M226.4,323.2l24.1,24.1h-48.1L226.4,323.2z M226.4,323.2l-24.1-24h48.1L226.4,323.2z M178.2,323.2
		l-24.1,24v-48.1L178.2,323.2z M178.2,323.2l24.1-24.1v48.1L178.2,323.2z M468.4,274.9l-24.1-24.1h48.1L468.4,274.9z M468.4,274.9
		l24.1,24h-48.1L468.4,274.9z M468.6,323.2l-24.1,24v-48.1L468.6,323.2z M371.5,274.9l-24.1-24.1h48.1L371.5,274.9z M371.5,274.9
		l24.1,24h-48.1L371.5,274.9z M419.6,275l24-24.1V299L419.6,275z M419.6,275l-24.1,24v-48.1L419.6,275z M419.8,323.2l24,24.1h-48.1
		L419.8,323.2z M419.8,323.2l-24.1-24h48.1L419.8,323.2z M371.6,323.2l-24,24v-48.1L371.6,323.2z M371.6,323.2l24-24.1v48.1
		L371.6,323.2z M82.1,371.3L58,347.2h48.1L82.1,371.3z M82.1,371.3l24,24H58L82.1,371.3z M130.2,371.3l24.1-24.1v48.1L130.2,371.3z
		 M130.2,371.3l-24.1,24v-48.1L130.2,371.3z M130.4,419.5l24.1,24h-48.1L130.4,419.5z M130.4,419.5l-24.1-24.1h48.1L130.4,419.5z
		 M82.3,419.5l-24.1,24.1v-48.1L82.3,419.5z M82.3,419.5l24.1-24.1v48.1L82.3,419.5z M-14.9,371.3l-24-24.1H9.2L-14.9,371.3z
		 M-14.9,371.3l24.1,24h-48.1L-14.9,371.3z M33.2,371.3l24.1-24.1v48.1L33.2,371.3z M33.2,371.3l-24.1,24v-48.1L33.2,371.3z
		 M33.4,419.5l24.1,24H9.4L33.4,419.5z M33.4,419.5l-24-24h48.1L33.4,419.5z M-14.7,419.5l24.1-24.1v48.1L-14.7,419.5z M275,371.3
		L251,347.2h48.1L275,371.3z M275,371.3l24.1,24H251L275,371.3z M323.1,371.3l24.1-24.1v48.1L323.1,371.3z M323.1,371.3l-24.1,24
		v-48.1L323.1,371.3z M323.3,419.5l24.1,24h-48.1L323.3,419.5z M323.3,419.5l-24.1-24.1h48.1L323.3,419.5z M275.2,419.5l-24.1,24.1
		v-48.1L275.2,419.5z M275.2,419.5l24-24.1v48.1L275.2,419.5z M178.1,371.3L154,347.2h48.1L178.1,371.3z M178.1,371.3l24.1,24H154
		L178.1,371.3z M226.2,371.3l24.1-24.1v48.1L226.2,371.3z M226.2,371.3l-24.1,24v-48.1L226.2,371.3z M226.4,419.5l24.1,24h-48.1
		L226.4,419.5z M226.4,419.5l-24.1-24h48.1L226.4,419.5z M178.2,419.5l-24.1,24.1v-48.1L178.2,419.5z M178.2,419.5l24.1-24.1v48.1
		L178.2,419.5z M468.4,371.3l-24.1-24.1h48.1L468.4,371.3z M468.4,371.3l24.1,24h-48.1L468.4,371.3z M468.6,419.5l-24.1,24.1v-48.1
		L468.6,419.5z M371.5,371.3l-24.1-24.1h48.1L371.5,371.3z M371.5,371.3l24.1,24h-48.1L371.5,371.3z M419.6,371.3l24-24.1v48.1
		L419.6,371.3z M419.6,371.3l-24.1,24v-48.1L419.6,371.3z M419.8,419.5l24,24h-48.1L419.8,419.5z M419.8,419.5l-24.1-24h48.1
		L419.8,419.5z M371.6,419.5l-24.1,24.1v-48.1L371.6,419.5z M371.6,419.5l24-24.1v48.1L371.6,419.5z M82.1,467.7L58,443.6h48.1
		L82.1,467.7z M130.2,467.7l24.1-24v48.1L130.2,467.7z M130.2,467.7l-24.1,24.1v-48.1L130.2,467.7z M-14.9,467.7l-24-24.1H9.2
		L-14.9,467.7z M33.2,467.7l24.1-24v48.1L33.2,467.7z M33.2,467.7L9.2,491.7v-48.1L33.2,467.7z M275,467.7L251,443.6h48.1L275,467.7
		z M323.1,467.7l24.1-24v48.1L323.1,467.7z M323.1,467.7l-24.1,24.1v-48.1L323.1,467.7z M178.1,467.7L154,443.6h48.1L178.1,467.7z
		 M226.2,467.7l24.1-24v48.1L226.2,467.7z M226.2,467.7l-24.1,24.1v-48.1L226.2,467.7z M468.4,467.7l-24.1-24.1h48.1L468.4,467.7z
		 M371.5,467.7l-24.1-24.1h48.1L371.5,467.7z M419.6,467.7l24-24v48.1L419.6,467.7z M419.6,467.7l-24.1,24.1v-48.1L419.6,467.7z"/>
</g>
</svg>
