<svg xmlns="http://www.w3.org/2000/svg" width="63" height="11" viewBox="0 0 63 11">
  <metadata><?xpacket begin="﻿" id="W5M0MpCehiHzreSzNTczkc9d"?>
<x:xmpmeta xmlns:x="adobe:ns:meta/" x:xmptk="Adobe XMP Core 5.6-c142 79.160924, 2017/07/13-01:06:39        ">
   <rdf:RDF xmlns:rdf="http://www.w3.org/1999/02/22-rdf-syntax-ns#">
      <rdf:Description rdf:about=""/>
   </rdf:RDF>
</x:xmpmeta>
                                                                                                    
                                                                                                    
                                                                                                    
                                                                                                    
                                                                                                    
                                                                                                    
                                                                                                    
                                                                                                    
                                                                                                    
                                                                                                    
                                                                                                    
                                                                                                    
                                                                                                    
                                                                                                    
                                                                                                    
                                                                                                    
                                                                                                    
                                                                                                    
                                                                                                    
                                                                                                    
                           
<?xpacket end="w"?></metadata>
<defs>
    <style>
      .cls-1 {
        fill: #424242;
        fill-rule: evenodd;
      }
    </style>
  </defs>
  <path id="Shape_9_copy" data-name="Shape 9 copy" class="cls-1" d="M499.992,6168.47a0.443,0.443,0,0,1-.457.41h-1.414l-0.442.09a0.421,0.421,0,0,0-.171.33v6.1c0,0.23.09,0.42-.162,0.42h-1.857a0.442,0.442,0,0,1-.457-0.42v-6.1a0.4,0.4,0,0,0-.023-0.13,0.387,0.387,0,0,0-.383-0.29H493a0.442,0.442,0,0,1-.458-0.42v-1.16a0.442,0.442,0,0,1,.458-0.42h6.539a0.38,0.38,0,0,1,.183.04,0.411,0.411,0,0,1,.275.38v1.17Zm-9.137,7.34h-1.561a0.433,0.433,0,0,1-.457-0.41v-1.55c0-.23-0.117-0.29-0.26-0.13l-0.176.17c-0.176.17-.37,0.33-0.582,0.5-0.081.07-.164,0.13-0.249,0.2h0c-0.072.06-.145,0.11-0.219,0.17a2,2,0,0,1-.177.13,4.85,4.85,0,0,1-3.029.92h-0.691a0.434,0.434,0,0,1-.458-0.41v-8.1a0.442,0.442,0,0,1,.458-0.42h1.612a0.443,0.443,0,0,1,.458.42v5.56c0,0.23.144,0.33,0.321,0.22a0.557,0.557,0,0,0,.271-0.11c0.167-.11.339-0.23,0.515-0.37a10.665,10.665,0,0,0,.832-0.69c0.273-.26.528-0.51,0.766-0.77,0.049-.05.1-0.11,0.143-0.16,0.062-.07.123-0.15,0.181-0.22q0.151-.18.284-0.36v-3.1a0.441,0.441,0,0,1,.457-0.42h1.561a0.442,0.442,0,0,1,.457.42v8.1A0.434,0.434,0,0,1,490.855,6175.81Zm-2.106-9.8a3.018,3.018,0,0,1-1.508.37,2.982,2.982,0,0,1-1.491-.37,1.929,1.929,0,0,1-.488-0.39c-0.408-.52.137-0.63,0.137-0.63h3.549a0.338,0.338,0,0,1,.366.49A1.313,1.313,0,0,1,488.749,6166.01Zm-7.447,9.81h-1.615a0.606,0.606,0,0,1-.656-0.41l-0.012-.06c-0.009-.04-0.019-0.1-0.029-0.15h-2.619v-2.02h2.1c-0.084-.27-0.169-0.54-0.244-0.78h0c-0.029-.1-0.058-0.19-0.083-0.27a0.4,0.4,0,0,0-.013-0.09l-0.069-.19c-0.007-.02-0.014-0.04-0.023-0.07-0.079-.21-0.158-0.42-0.238-0.62l-0.006-.02q-0.209-.51-0.4-0.87c-0.128-.24-0.21-0.4-0.245-0.47-0.23.44-.44,0.91-0.636,1.39-0.029.08-.061,0.15-0.09,0.22-0.153.39-.291,1.1-0.423,1.49a0.787,0.787,0,0,1-.153.01h-2.621c0.139-.44.289-1.2,0.446-1.63,0.229-.63.476-1.25,0.743-1.85a16.262,16.262,0,0,1,1.195-2.26,0.738,0.738,0,0,1,.652-0.29H478a0.906,0.906,0,0,1,.691.36s0.456,0.7.751,1.26,0.561,1.12.8,1.68c0.116,0.28.224,0.55,0.327,0.82q0.215,0.555.4,1.11c0.116,0.36.226,0.71,0.321,1.06l0,0.01H481.3v0.06q0.31,1.155.5,2.13C481.824,6175.51,481.8,6175.82,481.3,6175.82Zm-8.8-7.11-0.222-.03a5.445,5.445,0,0,0-.709-0.02,3.1,3.1,0,0,0-2.2.81,2.442,2.442,0,0,0-.7,1.89c0,0.01,0,.03,0,0.05a2.474,2.474,0,0,0,.583,1.67,2.8,2.8,0,0,0,1.15.74,3.267,3.267,0,0,0,.642.18c0.168,0.01.318,0.02,0.451,0.02h3.648v1.89H472.6l-9.7.02h-0.328c-0.149-.01-0.322-0.02-0.429-0.03a4.152,4.152,0,0,1-2.793-1.07,4.878,4.878,0,0,1-1.392-2.79c-0.012-.07-0.023-0.15-0.03-0.24s-0.015-.16-0.018-0.24c-0.007-.14-0.007-0.28,0-0.41a4.163,4.163,0,0,1,1.251-2.93,5.594,5.594,0,0,1,3.869-1.42,7.619,7.619,0,0,1,.967.02,7.425,7.425,0,0,1,.856.11l0.068,1.49a0.3,0.3,0,0,1-.355.34l-0.222-.03a5.374,5.374,0,0,0-.708-0.03,3.144,3.144,0,0,0-2.2.82,2.414,2.414,0,0,0-.7,1.73c0,0.07,0,.14,0,0.2a2.483,2.483,0,0,0,.582,1.68,2.8,2.8,0,0,0,1.15.74,3.049,3.049,0,0,0,.642.13c0.168,0.01.318,0.02,0.452,0.02l3.113-.01a4.587,4.587,0,0,1-.775-2.01c-0.013-.08-0.023-0.16-0.031-0.25s-0.014-.16-0.018-0.24c0-.05,0-0.11,0-0.16a4.193,4.193,0,0,1,1.254-3.18,5.591,5.591,0,0,1,3.868-1.42,7.631,7.631,0,0,1,.968.02,7.407,7.407,0,0,1,.855.11l0.068,1.49A0.3,0.3,0,0,1,472.5,6168.71Zm-17.075,6.11a6.1,6.1,0,0,1-7.238,0,4.212,4.212,0,0,1-1.459-3.47,6.381,6.381,0,0,1,.047-0.79c0.01-.07.025-0.15,0.037-0.23a3.9,3.9,0,0,1,1.375-2.47,6.14,6.14,0,0,1,7.238,0,4.129,4.129,0,0,1,1.468,3.24c0,0.08,0,.16,0,0.25a6.174,6.174,0,0,1-.063.89A3.9,3.9,0,0,1,455.429,6174.82Zm-1.416-3.88a3.24,3.24,0,0,0-.492-1.45,2.247,2.247,0,0,0-3.421,0,3.265,3.265,0,0,0-.433,1.12,4.082,4.082,0,0,0-.064.56c0,0.06,0,.12,0,0.18a3.342,3.342,0,0,0,.508,1.85,2.222,2.222,0,0,0,3.415,0,3.205,3.205,0,0,0,.478-1.31,4.083,4.083,0,0,0,.037-0.54A3.868,3.868,0,0,0,454.013,6170.94Zm-12.412,2.85h-0.13a0.331,0.331,0,0,1-.319-0.33v-1.45a0.214,0.214,0,0,1,.2-0.23l0.013-.01h0.025a1.681,1.681,0,0,0,.846-0.33,1.292,1.292,0,0,0,.463-1.09c0-.06-0.007-0.15-0.02-0.28a0.842,0.842,0,0,0-.057-0.23,1.133,1.133,0,0,0-.095-0.2,0.9,0.9,0,0,0-.093-0.14c-0.008-.01-0.019-0.02-0.028-0.03q-0.04-.045-0.084-0.09l-0.016-.02H442.3a2.235,2.235,0,0,0-1.333-.47l0-.01h-0.975a0.442,0.442,0,0,0-.458.42v6.1a0.442,0.442,0,0,1-.458.42h-1.612a0.442,0.442,0,0,1-.458-0.42v-8.1a0.413,0.413,0,0,1,.2-0.35,0.537,0.537,0,0,1,.256-0.07h3.382c0.251,0,.662.03,0.911,0.06,0,0,.462.06,1.016,0.18h0c0.167,0.04.343,0.09,0.517,0.14a3.426,3.426,0,0,1,2.048,1.85,3.168,3.168,0,0,1,.2.81c0.009,0.07.015,0.14,0.02,0.22,0,0.03,0,.05,0,0.08s0,0.06,0,.09,0,0.04,0,.05a3.284,3.284,0,0,1-1.016,2.44A4.057,4.057,0,0,1,441.6,6173.79Z" transform="translate(-437 -6165)"/>
</svg>
