<svg xmlns="http://www.w3.org/2000/svg" xmlns:xlink="http://www.w3.org/1999/xlink" width="650.09" height="99.61" viewBox="0 0 650.09 99.61">
  <defs>
    <style>
      .cls-1 {
        fill: none;
      }

      .cls-2 {
        clip-path: url(#clip-path);
      }

      .cls-3 {
        fill: #596b88;
      }
    </style>
    <clipPath id="clip-path" transform="translate(0 0)">
      <rect class="cls-1" width="650.09" height="99.61"/>
    </clipPath>
  </defs>
  <title>logo</title>
  <g id="Layer_2" data-name="Layer 2">
    <g id="Layer_1-2" data-name="Layer 1">
      <g class="cls-2">
        <path class="cls-3" d="M103.35,10.44c13.5,0,21.78,8,21.78,20.94,0,10.78-8.22,21.24-18.93,21.24,2.39,1.1,5.82,4.79,8,7.84,0,0,9.61,13.71,13.92,18.42,4.48,4.9,8.6,8.37,15.15,8.42v1.12h-6.11c-10.37,0-15.93-5.58-19.44-9.76-1.26-1.51-13.82-19.78-14.67-20.85-2.91-3.66-6.16-7.52-10.23-7.52v-1s2.53.05,5.88,0c5.78-.16,14.23-1.53,17.39-11.57a23,23,0,0,0,.71-6.67c-.27-10.07-5.52-16.52-13.82-17-5.68-.31-12.42,0-13.87-.09v66.4a7.14,7.14,0,0,0,7.14,7h1.41v1.12H73.31l0-1.12h1.41a7.13,7.13,0,0,0,7.13-7V18.56a7.15,7.15,0,0,0-7.14-7H73.32l0-1.11Z" transform="translate(0 0)"/>
        <path class="cls-3" d="M169.75,88.42H145.38l0-1.11h1.41a7.13,7.13,0,0,0,7.13-7V18.51a7.13,7.13,0,0,0-7.13-7H145.4l0-1.11h24.37l0,1.11h-1.4a7.14,7.14,0,0,0-7.14,6.94V80.31a7.14,7.14,0,0,0,7.14,7h1.41Z" transform="translate(0 0)"/>
        <path class="cls-3" d="M300,88.42H275.61l0-1.11H277a7.14,7.14,0,0,0,7.14-7V18.51a7.15,7.15,0,0,0-7.14-7h-1.41l0-1.11H300l0,1.11h-1.41a7.14,7.14,0,0,0-7.14,6.94V80.31a7.14,7.14,0,0,0,7.14,7H300Z" transform="translate(0 0)"/>
        <path class="cls-3" d="M359.86,10.33c4.81,0,11.33-1.14,13.41-2v14h-1.12v-2a6.64,6.64,0,0,0-6.35-6.63H344.68V80.4a7.14,7.14,0,0,0,7.14,6.91h1.41v1.12H328.86l0-1.12h1.4a7.13,7.13,0,0,0,7.13-6.82V13.68H316.29a6.64,6.64,0,0,0-6.36,6.63v2h-1.12v-14c2.09.88,8.6,2,13.42,2Z" transform="translate(0 0)"/>
        <path class="cls-3" d="M51,10.33c4.82,0,11.33-1.14,13.42-2v14H63.34v-2A6.64,6.64,0,0,0,57,13.68H35.87V80.4A7.13,7.13,0,0,0,43,87.31h1.41l0,1.12H20l0-1.12h1.41a7.13,7.13,0,0,0,7.13-6.82V13.68H7.47a6.64,6.64,0,0,0-6.35,6.63v2H0v-14c2.09.88,8.6,2,13.42,2Z" transform="translate(0 0)"/>
        <path class="cls-3" d="M437.45,80.3c2.25,5,6.37,7,9.79,7h.93v1.11H423.08v-1.1h1c2.88,0,5.86-2.54,4.23-7l-7.12-19h-30L383.7,80.4c-1.57,4.41,1.4,6.92,4.26,6.92h1v1.1H366.52V87.31h1c3.39,0,7.51-2,9.76-7l25.26-59.94s4.13-9,4.13-11.47h1ZM419.91,58,406.49,22.26,392.47,58Z" transform="translate(0 0)"/>
        <path class="cls-3" d="M483.69,10.44c13.49,0,21.77,8,21.77,20.94,0,10.78-8.21,21.24-18.93,21.24,2.39,1.1,5.82,4.79,8,7.84,0,0,9.6,13.71,13.91,18.42,4.48,4.9,8.61,8.37,15.15,8.42v1.12h-6.11c-10.36,0-15.93-5.58-19.43-9.76-1.27-1.51-13.82-19.78-14.68-20.85-2.91-3.66-6.16-7.52-10.23-7.52v-1s2.53.05,5.89,0c5.78-.16,14.22-1.53,17.39-11.57a23,23,0,0,0,.7-6.67c-.27-10.07-5.52-16.52-13.82-17-5.68-.31-12.42,0-13.86-.09v66.4a7.13,7.13,0,0,0,7.13,7H478l0,1.12H453.64l0-1.12h1.41a7.13,7.13,0,0,0,7.13-7V18.56a7.14,7.14,0,0,0-7.14-7h-1.4l0-1.11Z" transform="translate(0 0)"/>
        <path class="cls-3" d="M550.09,88.42H525.71l0-1.11h1.41a7.14,7.14,0,0,0,7.14-7V18.51a7.14,7.14,0,0,0-7.14-7h-1.41V10.44h24.37l0,1.11h-1.41a7.14,7.14,0,0,0-7.14,6.94V80.31a7.14,7.14,0,0,0,7.14,7h1.41Z" transform="translate(0 0)"/>
        <path class="cls-3" d="M288.22,95.51c-10.77,3.62-13.75,4.81-19.9,3.71-4.43-.79-11.53-4.79-15.57-9.23L194,24.93V80.65a6.88,6.88,0,0,0,6.88,6.66h2l0,1.12H180l0-1.12h2.06a6.87,6.87,0,0,0,6.87-6.74V19.32c-6.51-8-14.43-19.7-31.14-14.85l-.45-1.12C167.19-.79,174-.73,180.05,1.57c4.89,1.87,9.07,6.6,13.56,11.59l56.07,62.36V18.31a6.89,6.89,0,0,0-6.87-6.76h-2.06l0-1.11h23l0,1.11h-2.05a6.89,6.89,0,0,0-6.88,6.67V81.13c8,8.85,14.59,17.8,33.06,13.26Z" transform="translate(0 0)"/>
        <path class="cls-3" d="M584.76,37c-2-10.14,3.5-28.11,26.78-28.11s38.55,17.37,38.55,39.32C650.09,73.05,631,90,605.19,90c-25.62,0-40.92-16.71-40.92-41.66,0-15.82,7.06-30.18,20.86-37.17l.67,1c-10.46,6.88-13,22.92-13,34.5,0,25.84,11.63,40,32.13,40,21.39,0,36.54-15.37,36.54-38.65,0-18.72-10.25-35.76-30.86-35.76-18.49,0-26.43,14.41-24.78,24.55Z" transform="translate(0 0)"/>
      </g>
    </g>
  </g>
</svg>
