<svg xmlns="http://www.w3.org/2000/svg" width="63" height="11"><path data-name="Shape 9 copy" d="M62.992 3.47a.443.443 0 01-.457.41h-1.414l-.442.09a.421.421 0 00-.171.33v6.1c0 .23.09.42-.162.42h-1.857a.442.442 0 01-.457-.42V4.3a.4.4 0 00-.023-.13.387.387 0 00-.383-.29H56a.442.442 0 01-.458-.42V2.3A.442.442 0 0156 1.88h6.539a.38.38 0 01.183.04.411.411 0 01.275.38v1.17zm-9.137 7.34h-1.561a.433.433 0 01-.457-.41V8.85c0-.23-.117-.29-.26-.13l-.176.17c-.176.17-.37.33-.582.5-.081.07-.164.13-.249.2-.072.06-.145.11-.219.17a2 2 0 01-.177.13 4.85 4.85 0 01-3.029.92h-.691a.434.434 0 01-.458-.41V2.3a.442.442 0 01.458-.42h1.612a.443.443 0 01.458.42v5.56c0 .23.144.33.321.22a.557.557 0 00.271-.11c.167-.11.339-.23.515-.37a10.665 10.665 0 00.832-.69c.273-.26.528-.51.766-.77.049-.05.1-.11.143-.16.062-.07.123-.15.181-.22q.151-.18.284-.36V2.3a.441.441 0 01.457-.42h1.561a.442.442 0 01.457.42v8.1a.434.434 0 01-.457.41zm-2.106-9.8a3.018 3.018 0 01-1.508.37 2.982 2.982 0 01-1.491-.37 1.929 1.929 0 01-.488-.39c-.408-.52.137-.63.137-.63h3.549a.338.338 0 01.366.49 1.313 1.313 0 01-.565.53zm-7.447 9.81h-1.615a.606.606 0 01-.656-.41l-.012-.06c-.009-.04-.019-.1-.029-.15h-2.619V8.18h2.1l-.244-.78c-.029-.1-.058-.19-.083-.27a.4.4 0 00-.013-.09l-.069-.19a1.466 1.466 0 01-.023-.07c-.079-.21-.158-.42-.238-.62l-.006-.02q-.209-.51-.4-.87c-.128-.24-.21-.4-.245-.47-.23.44-.44.91-.636 1.39-.029.08-.061.15-.09.22-.153.39-.291 1.1-.423 1.49a.787.787 0 01-.153.01h-2.621c.139-.44.289-1.2.446-1.63.229-.63.476-1.25.743-1.85a16.262 16.262 0 011.195-2.26.738.738 0 01.652-.29H41a.906.906 0 01.691.36s.456.7.751 1.26.561 1.12.8 1.68c.116.28.224.55.327.82q.215.555.4 1.11c.116.36.226.71.321 1.06v.01h.01v.06q.31 1.155.5 2.13c.024.14 0 .45-.5.45zm-8.8-7.11l-.222-.03a5.445 5.445 0 00-.709-.02 3.1 3.1 0 00-2.2.81 2.442 2.442 0 00-.7 1.89v.05a2.474 2.474 0 00.583 1.67 2.8 2.8 0 001.15.74 3.267 3.267 0 00.642.18c.168.01.318.02.451.02h3.648v1.89H35.6l-9.7.02h-.328c-.149-.01-.322-.02-.429-.03a4.152 4.152 0 01-2.793-1.07 4.878 4.878 0 01-1.392-2.79c-.012-.07-.023-.15-.03-.24s-.015-.16-.018-.24a4.004 4.004 0 010-.41 4.163 4.163 0 011.251-2.93A5.594 5.594 0 0126.03 1.8a7.619 7.619 0 01.967.02 7.425 7.425 0 01.856.11l.068 1.49a.3.3 0 01-.355.34l-.222-.03a5.374 5.374 0 00-.708-.03 3.144 3.144 0 00-2.2.82 2.414 2.414 0 00-.7 1.73v.2a2.483 2.483 0 00.582 1.68 2.8 2.8 0 001.15.74 3.049 3.049 0 00.642.13c.168.01.318.02.452.02l3.113-.01A4.587 4.587 0 0128.9 7a5.952 5.952 0 01-.049-.49v-.16a4.193 4.193 0 011.254-3.18 5.591 5.591 0 013.868-1.42 7.631 7.631 0 01.968.02 7.407 7.407 0 01.855.11l.068 1.49a.3.3 0 01-.364.34zM18.427 9.82a6.1 6.1 0 01-7.238 0A4.212 4.212 0 019.73 6.35a6.381 6.381 0 01.047-.79c.01-.07.025-.15.037-.23a3.9 3.9 0 011.375-2.47 6.14 6.14 0 017.238 0 4.129 4.129 0 011.468 3.24v.25a6.174 6.174 0 01-.063.89 3.9 3.9 0 01-1.403 2.58zm-1.416-3.88a3.24 3.24 0 00-.492-1.45 2.247 2.247 0 00-3.421 0 3.265 3.265 0 00-.433 1.12 4.082 4.082 0 00-.064.56v.18a3.342 3.342 0 00.508 1.85 2.222 2.222 0 003.415 0 3.205 3.205 0 00.478-1.31 4.083 4.083 0 00.037-.54 3.868 3.868 0 00-.026-.41zM4.599 8.79h-.13a.331.331 0 01-.319-.33V7.01a.214.214 0 01.2-.23l.013-.01h.025a1.681 1.681 0 00.846-.33 1.292 1.292 0 00.463-1.09c0-.06-.007-.15-.02-.28a.842.842 0 00-.057-.23 1.133 1.133 0 00-.095-.2.9.9 0 00-.093-.14l-.028-.03q-.04-.045-.084-.09l-.016-.02H5.3a2.235 2.235 0 00-1.333-.47v-.01h-.975a.442.442 0 00-.458.42v6.1a.442.442 0 01-.458.42H.464a.442.442 0 01-.458-.42V2.3a.413.413 0 01.2-.35.537.537 0 01.256-.07h3.382c.251 0 .662.03.911.06 0 0 .462.06 1.016.18.167.04.343.09.517.14a3.426 3.426 0 012.048 1.85 3.168 3.168 0 01.2.81c.009.07.015.14.02.22v.22A3.284 3.284 0 017.54 7.8a4.057 4.057 0 01-2.94.99z" fill="#424242" fill-rule="evenodd" style="&#10;    fill: #4e6b8b;&#10;"/><script xmlns="" id="mew-web3script" type="application/javascript" async="false"/><script xmlns="" type="application/javascript" async="false" id="mew-extensionId">(function(t){window.extensionID=t})("nlbmnnijcnlegkjjpcfjclmcfggfefdm")</script></svg>
